<svg xmlns="http://www.w3.org/2000/svg" width="42.68" height="34.664" viewBox="0 0 42.68 34.664">
  <defs>
    <style>
      .cls-1 {
        fill: #fff;
      }
    </style>
  </defs>
  <path id="Icon_awesome-twitter" data-name="Icon awesome-twitter" class="cls-1" d="M38.293,12.02c.027.379.027.758.027,1.137,0,11.564-8.8,24.888-24.888,24.888A24.719,24.719,0,0,1,0,34.118a18.1,18.1,0,0,0,2.112.108,17.518,17.518,0,0,0,10.86-3.737,8.763,8.763,0,0,1-8.179-6.066,11.031,11.031,0,0,0,1.652.135,9.252,9.252,0,0,0,2.3-.3,8.748,8.748,0,0,1-7.014-8.585v-.108a8.809,8.809,0,0,0,3.954,1.11,8.76,8.76,0,0,1-2.708-11.7,24.864,24.864,0,0,0,18.036,9.153,9.875,9.875,0,0,1-.217-2A8.756,8.756,0,0,1,35.937,6.143a17.222,17.222,0,0,0,5.552-2.112,8.724,8.724,0,0,1-3.846,4.82A17.536,17.536,0,0,0,42.68,7.5a18.8,18.8,0,0,1-4.387,4.523Z" transform="translate(0 -3.381)"/>
</svg>
