<svg xmlns="http://www.w3.org/2000/svg" viewBox="0 0 48.05 56.95"><defs><style>.cls-1{fill:#d7d8d8;}</style></defs><title>Store</title><g id="Layer_2" data-name="Layer 2"><g id="Layer_1-2" data-name="Layer 1"><path class="cls-1" d="M42.11,11H37.33C36.37,6.57,33,.19,25,0c-8.27-.18-12.2,6.45-13.53,11H5.93A6,6,0,0,0,0,17V51A6,6,0,0,0,5.93,57H42.11A6,6,0,0,0,48.05,51V17A6,6,0,0,0,42.11,11ZM24.58,3.71h.26c5.75.15,7.9,4.6,8.71,7.3H15.31C16.39,8.2,19,3.71,24.58,3.71ZM44.34,51a2.23,2.23,0,0,1-2.23,2.22H5.93A2.23,2.23,0,0,1,3.71,51V17a2.23,2.23,0,0,1,2.22-2.23H42.11A2.23,2.23,0,0,1,44.34,17Z"/></g></g></svg>