<svg xmlns="http://www.w3.org/2000/svg" viewBox="0 0 56.72 57.9"><defs><style>.cls-1{fill:#d7d8d8;}</style></defs><title>Search</title><g id="Layer_2" data-name="Layer 2"><g id="Layer_1-2" data-name="Layer 1"><path class="cls-1" d="M55.85,52.74,40.12,37a2.09,2.09,0,0,0-.48-.41,22.15,22.15,0,0,0,5.12-14.23A22.38,22.38,0,1,0,22.38,44.76a21.84,21.84,0,0,0,13-4.2,2.09,2.09,0,0,0,.49.73L51.57,57a3,3,0,0,0,4.28,0A3,3,0,0,0,55.85,52.74ZM4,22.38A18.35,18.35,0,1,1,22.38,40.73,18.37,18.37,0,0,1,4,22.38Z"/></g></g></svg>