<svg xmlns="http://www.w3.org/2000/svg" xmlns:xlink="http://www.w3.org/1999/xlink" viewBox="0 0 400.15 134"><defs><style>.cls-1{fill:url(#radial-gradient);}.cls-2{fill:#fff;}.cls-3{fill:url(#radial-gradient-2);}.cls-4{fill:url(#radial-gradient-3);}.cls-5{fill:url(#radial-gradient-4);}.cls-6{fill:none;stroke:#fff;stroke-linecap:round;stroke-linejoin:round;stroke-width:4px;}</style><radialGradient id="radial-gradient" cx="259.66" cy="43.87" fx="278.57793641743575" fy="28.931061813465263" r="24.11" gradientTransform="translate(0.67 0.32)" gradientUnits="userSpaceOnUse"><stop offset="0.15" stop-color="#00a5d5"/><stop offset="1" stop-color="#3a4a9e"/></radialGradient><radialGradient id="radial-gradient-2" cx="136.74" cy="23.22" fx="136.74384691992327" fy="23.221993914782615" r="40.78" gradientTransform="matrix(1, 0, 0, 1, 0, 0)" xlink:href="#radial-gradient"/><radialGradient id="radial-gradient-3" cx="220.83" cy="17.71" fx="220.8291227468917" fy="17.71088707367562" r="92.34" gradientTransform="translate(0.45 0.31)" xlink:href="#radial-gradient"/><radialGradient id="radial-gradient-4" cx="200.55" cy="129.2" fx="200.54714808815243" fy="129.19636690531115" r="291.1" gradientTransform="matrix(1, 0, 0, 1, 0, 0)" xlink:href="#radial-gradient"/></defs><title>Bookpearl</title><g id="Layer_2" data-name="Layer 2"><g id="Layer_1-2" data-name="Layer 1"><circle class="cls-1" cx="259.18" cy="44" r="24"/><path class="cls-2" d="M269.09,34.73a18.74,18.74,0,0,1,1.63,23.79,18.73,18.73,0,1,0-23-29.39,19,19,0,0,0-2.34,2.69A18.72,18.72,0,0,1,269.09,34.73Z"/><circle class="cls-3" cx="146.18" cy="41" r="24"/><path class="cls-2" d="M135.53,34a18.73,18.73,0,0,1,22.85-6.83,18.94,18.94,0,0,0-2.76-2.25A18.73,18.73,0,0,0,134.77,56a18.31,18.31,0,0,0,3.13,1.69A18.71,18.71,0,0,1,135.53,34Z"/><circle class="cls-4" cx="201.18" cy="44" r="44"/><path class="cls-2" d="M201.23,19.8a34.28,34.28,0,0,1,33.65,27.79,34.66,34.66,0,0,0,.62-6.49,34.28,34.28,0,0,0-68.55,0,33.85,33.85,0,0,0,.63,6.49A34.27,34.27,0,0,1,201.23,19.8Z"/><path class="cls-2" d="M15.18,113.77l7.24-14.48,80.89-22.94s51.3-20.52,89.94,32l7.76,4.91.43,18.63L175.63,118H15.18Z"/><path class="cls-2" d="M386.18,112.72l-7.25-14.49L298.05,75.3s-51.31-20.53-90,32l-8.49,6.59.43,18.63L226.59,118l159.59-1Z"/><path class="cls-5" d="M209.2,134l-16.34,0A23.67,23.67,0,0,1,173,120H4.67a4.62,4.62,0,0,1-4.58-3.57A4.51,4.51,0,0,1,4.5,111H176.21l4.42,3.49A14.67,14.67,0,0,0,193.46,125H209a14.69,14.69,0,0,0,12.85-10.55l4.4-3.45H395.48a4.61,4.61,0,0,1,4.58,3.57,4.51,4.51,0,0,1-4.41,5.43H229.43a23.69,23.69,0,0,1-19.84,14Z"/><path class="cls-6" d="M44.88,86l25-4.28c4.7-.84,9.37-1.89,14-3.16L108,71.65a73.82,73.82,0,0,1,21.63-3.4c8.21-.06,18.64.43,25.17,2.82,8.72,3.2,23.14,6.49,45.36,41.38V117"/><path class="cls-6" d="M355.47,86l-25-4.28c-4.7-.84-9.37-1.89-14-3.16l-24.15-6.92a73.82,73.82,0,0,0-21.63-3.4c-8.21-.06-18.64.43-25.17,2.82-8.72,3.2-23.13,6.49-45.35,41.38V117"/><path class="cls-6" d="M355.21,78.4c-1.69,0-3,3-68.59-14.14s-86.7,44.57-86.7,44.57a54.78,54.78,0,0,1,2.25-8.07c12-34.21,48.61-53.19,83.64-43.84,23.45,6.27,60.51,15.14,69.4,11.32"/><path class="cls-6" d="M44.62,78.4c1.7,0,3,3,68.6-14.14s86.7,44.57,86.7,44.57a55.8,55.8,0,0,0-2.26-8.07c-12-34.21-48.61-53.19-83.64-43.84-23.45,6.27-60.5,15.14-69.4,11.32"/></g></g></svg>