<svg xmlns="http://www.w3.org/2000/svg" xmlns:xlink="http://www.w3.org/1999/xlink" viewBox="0 0 202.34 213.17"><defs><style>.cls-1{fill:none;}.cls-2{fill:url(#radial-gradient);}.cls-3{fill:#fff;}.cls-4{fill:url(#radial-gradient-4);}.cls-5{fill:url(#radial-gradient-10);}</style><radialGradient id="radial-gradient" cx="136.74" cy="23.19" r="40.78" gradientUnits="userSpaceOnUse"><stop offset="0.15" stop-color="#00a5d5"/><stop offset="1" stop-color="#3a4a9e"/></radialGradient><radialGradient id="radial-gradient-4" cx="220.82" cy="17.68" r="92.34" gradientTransform="translate(0.46 0.31)" xlink:href="#radial-gradient"/><radialGradient id="radial-gradient-10" cx="200.55" cy="129.17" r="291.1" xlink:href="#radial-gradient"/></defs><title>gateleft</title><g id="Layer_2" data-name="Layer 2"><g id="Layer_1-2" data-name="Layer 1"><path class="cls-1" d="M200.18,112.42a1.3,1.3,0,0,1-.1-.15v.36l.1.06Z"/><path class="cls-1" d="M200.08,87.94a43.56,43.56,0,0,1-9.2-1.19,68.76,68.76,0,0,1,6.78,14,55.8,55.8,0,0,1,2.26,8.07s.05-.29.16-.81Z"/><path class="cls-1" d="M160.2,60.45l.21.09-.07-.19Z"/><path class="cls-1" d="M190.88,86.75a45.62,45.62,0,0,1-4.95-1.49,82,82,0,0,1,14,23.54,55.8,55.8,0,0,0-2.26-8.07A68.76,68.76,0,0,0,190.88,86.75Z"/><path class="cls-1" d="M199.92,108.8s.05-.16.16-.44V108C200,108.51,199.92,108.8,199.92,108.8Z"/><path class="cls-1" d="M86.74,181.35a12.42,12.42,0,0,0-2.32.8,6.88,6.88,0,0,0-1.83,1.22,5.19,5.19,0,0,0-1.21,1.74,5.73,5.73,0,0,0-.44,2.31,5.94,5.94,0,0,0,.16,1.42,3.47,3.47,0,0,0,.52,1.19,2.56,2.56,0,0,0,.89.81,2.66,2.66,0,0,0,1.3.29,4.36,4.36,0,0,0,1.78-.4,8,8,0,0,0,1.79-1.1,10.84,10.84,0,0,0,1.7-1.69,14.1,14.1,0,0,0,2.53-4.59,11.21,11.21,0,0,0,.56-2.63q-1.41,0-2.79.18A17.71,17.71,0,0,0,86.74,181.35Z"/><path class="cls-1" d="M160.2,60.45a24,24,0,0,1-6.5,3.31,60.81,60.81,0,0,1,10.53,4.1,44.22,44.22,0,0,1-3.82-7.32Z"/><path class="cls-1" d="M65.37,176.8a6.17,6.17,0,0,0,2.26-1.75,3.72,3.72,0,0,0,.78-2.33,4.46,4.46,0,0,0-.3-1.64,3.88,3.88,0,0,0-.82-1.32,3.71,3.71,0,0,0-1.24-.89,3.92,3.92,0,0,0-1.56-.32,5.61,5.61,0,0,0-2.25.44,6.24,6.24,0,0,0-1.81,1.19A8.45,8.45,0,0,0,59,171.93a13,13,0,0,0-1,2.12,18.08,18.08,0,0,0-.69,2.31,17.49,17.49,0,0,0-.38,2.3,33.14,33.14,0,0,0,4.84-.66A15.49,15.49,0,0,0,65.37,176.8Z"/><path class="cls-1" d="M197,174.82a13.68,13.68,0,0,0-1-2.3,7.8,7.8,0,0,0-1.47-1.87,6.63,6.63,0,0,0-1.9-1.24,5.7,5.7,0,0,0-2.33-.46,5,5,0,0,0-2.45.59,6.11,6.11,0,0,0-1.83,1.58,9.07,9.07,0,0,0-1.27,2.27,16.91,16.91,0,0,0-.81,2.62,19.67,19.67,0,0,0-.43,2.7c-.08.89-.13,1.71-.13,2.45a18.1,18.1,0,0,0,.2,2.62,15.3,15.3,0,0,0,.62,2.57,13.2,13.2,0,0,0,1,2.32,7.8,7.8,0,0,0,1.47,1.87,6.3,6.3,0,0,0,1.9,1.26,5.75,5.75,0,0,0,2.34.46,4.85,4.85,0,0,0,2.44-.6,6,6,0,0,0,1.83-1.59,9.42,9.42,0,0,0,1.28-2.27,19.23,19.23,0,0,0,.81-2.64,21.14,21.14,0,0,0,.42-2.69,24.49,24.49,0,0,0,.13-2.46,18,18,0,0,0-.2-2.63A15.19,15.19,0,0,0,197,174.82Z"/><path class="cls-2" d="M135.42,54.62a18.53,18.53,0,0,0,2.48,3.07A19.81,19.81,0,0,1,134.77,56a19.6,19.6,0,0,1-1.88-1.46q-3.16,0-6.36.21a23.81,23.81,0,0,0,6.29,6.16c.17.12.35.22.53.34a66.91,66.91,0,0,1,20.35,2.51,24,24,0,0,0,6.5-3.31A69.78,69.78,0,0,0,135.42,54.62Z"/><path class="cls-2" d="M129.64,30a18.72,18.72,0,0,1,26-5.13,18.94,18.94,0,0,1,2.76,2.25,18.72,18.72,0,0,0-23,27.49,69.78,69.78,0,0,1,24.78,5.83l.14-.1a44,44,0,0,1,2-37.1A23.59,23.59,0,0,0,159.53,21a24,24,0,0,0-33,33.71q3.19-.26,6.36-.21A18.72,18.72,0,0,1,129.64,30Z"/><path class="cls-2" d="M133.35,61.25a24,24,0,0,0,20.35,2.51A66.91,66.91,0,0,0,133.35,61.25Z"/><path class="cls-3" d="M132.89,54.54A19.6,19.6,0,0,0,134.77,56a19.81,19.81,0,0,0,3.13,1.69,18.53,18.53,0,0,1-2.48-3.07C134.58,54.58,133.74,54.55,132.89,54.54Z"/><path class="cls-3" d="M135.53,34a18.73,18.73,0,0,1,22.85-6.83,18.94,18.94,0,0,0-2.76-2.25,18.72,18.72,0,0,0-22.73,29.66c.85,0,1.69,0,2.53.08A18.72,18.72,0,0,1,135.53,34Z"/><path class="cls-4" d="M164.23,67.86a44.18,44.18,0,0,0,21.7,17.4A68.85,68.85,0,0,0,164.23,67.86Z"/><path class="cls-4" d="M160.41,60.54a44.22,44.22,0,0,0,3.82,7.32,68.85,68.85,0,0,1,21.7,17.4,45.62,45.62,0,0,0,4.95,1.49A69.13,69.13,0,0,0,160.41,60.54Z"/><path class="cls-4" d="M168.28,31.64a34.27,34.27,0,0,1,31.8-24.81V0a44,44,0,0,0-37.72,23.25A23.79,23.79,0,0,1,168.28,31.64Z"/><path class="cls-4" d="M170.14,39.64a24.05,24.05,0,0,1-9.8,20.71l.07.19a69.13,69.13,0,0,1,30.47,26.21,43.56,43.56,0,0,0,9.2,1.19V19.8A34.25,34.25,0,0,0,170.14,39.64Z"/><path class="cls-2" d="M160.34,60.35a24.05,24.05,0,0,0,9.8-20.71,34,34,0,0,0-2.56,7.92,34,34,0,0,1,.7-15.92,23.79,23.79,0,0,0-5.92-8.39,44,44,0,0,0-2,37.1Z"/><path class="cls-4" d="M160.34,60.35a24.05,24.05,0,0,0,9.8-20.71,34,34,0,0,0-2.56,7.92,34,34,0,0,1,.7-15.92,23.79,23.79,0,0,0-5.92-8.39,44,44,0,0,0-2,37.1Z"/><path class="cls-3" d="M200.08,19.8v-13a34.27,34.27,0,0,0-31.8,24.81,24.25,24.25,0,0,1,1.86,8A34.25,34.25,0,0,1,200.08,19.8Z"/><path class="cls-3" d="M167,41.07a33.85,33.85,0,0,0,.63,6.49,34,34,0,0,1,2.56-7.92,24.25,24.25,0,0,0-1.86-8A34.16,34.16,0,0,0,167,41.07Z"/><polygon class="cls-3" points="200.18 113.41 200.18 112.69 200.08 112.63 200.08 113.48 200.18 113.41"/><polygon class="cls-3" points="200.68 113.01 200.18 112.69 200.18 113.41 200.68 113.01"/><path class="cls-3" d="M180.63,114.46A14.65,14.65,0,0,0,193.46,125h6.4l-.25-11.12.47-.37v-.85l-6.83-4.32c-38.64-52.51-89.94-32-89.94-32L22.42,99.26,16.56,111H176.21Z"/><polygon class="cls-3" points="200.08 113.48 199.61 113.85 199.86 124.97 200.08 124.97 200.08 113.48"/><polygon class="cls-3" points="200.18 116.97 200.18 113.41 200.08 113.48 200.08 124.97 201.28 124.97 201.01 113.22 200.68 113.01 200.18 113.41 200.18 116.97"/><path class="cls-5" d="M200,132.48l0-1.4L175.63,118H15.18v-4.22L16.56,111H4.5A4.51,4.51,0,0,0,.09,116.4,4.62,4.62,0,0,0,4.67,120H173a23.68,23.68,0,0,0,19.83,14h7.22v-1.5Z"/><polygon class="cls-3" points="201.44 131.86 201.44 131.72 201.31 131.79 201.44 131.86"/><polygon class="cls-5" points="201.44 131.86 201.44 131.72 201.31 131.79 201.44 131.86"/><path class="cls-3" d="M15.18,118H175.63L200,131.08l-.15-6.11h-6.4a14.65,14.65,0,0,1-12.83-10.51L176.21,111H16.56l-1.38,2.78Z"/><path class="cls-5" d="M15.18,118H175.63L200,131.08l-.15-6.11h-6.4a14.65,14.65,0,0,1-12.83-10.51L176.21,111H16.56l-1.38,2.78Z"/><polygon class="cls-3" points="200.08 132.46 201.31 131.79 200.08 131.12 200.08 132.46"/><polygon class="cls-5" points="200.08 132.46 201.31 131.79 200.08 131.12 200.08 132.46"/><polygon class="cls-3" points="200.01 131.08 200.04 132.48 200.08 132.46 200.08 131.12 200.01 131.08"/><polygon class="cls-5" points="200.01 131.08 200.04 132.48 200.08 132.46 200.08 131.12 200.01 131.08"/><polygon class="cls-3" points="200.08 124.97 199.86 124.97 200.01 131.08 200.08 131.12 200.08 124.97"/><polygon class="cls-5" points="200.08 124.97 199.86 124.97 200.01 131.08 200.08 131.12 200.08 124.97"/><polygon class="cls-3" points="200.08 124.97 200.08 131.12 201.31 131.79 201.44 131.72 201.28 124.97 200.08 124.97"/><polygon class="cls-5" points="200.08 124.97 200.08 131.12 201.31 131.79 201.44 131.72 201.28 124.97 200.08 124.97"/><path class="cls-3" d="M51.81,155.09A8.28,8.28,0,0,0,49,151.9a11.82,11.82,0,0,0-4.21-1.69,25.58,25.58,0,0,0-5.15-.49c-1.39,0-2.83.06-4.34.18s-3,.27-4.49.46-2.94.4-4.36.63-2.72.45-3.91.67l.23,1.69a23,23,0,0,1,3.21-.28,5.37,5.37,0,0,1,1.51.17,1.93,1.93,0,0,1,.92.53,2,2,0,0,1,.47.94,6,6,0,0,1,.13,1.37q0,4.75-.07,9.3c-.06,3-.12,6.09-.2,9.18s-.19,6.27-.32,9.53-.27,6.71-.42,10.36l.34,0,4.52-.58q.14-4.33.26-8.71c.09-2.91.18-5.75.25-8.51s.15-5.41.23-7.94.14-4.86.2-7,.11-4,.15-5.65.08-2.94.11-3.92q1.08-.13,2-.21c.61,0,1.26-.07,1.93-.07a15.28,15.28,0,0,1,3.77.44,7.76,7.76,0,0,1,3.09,1.54,7.22,7.22,0,0,1,2.1,2.92,12,12,0,0,1,.77,4.6,22,22,0,0,1-.13,2.3,12.22,12.22,0,0,1-.57,2.58,10.93,10.93,0,0,1-1.26,2.54A8.56,8.56,0,0,1,43.55,171a11.13,11.13,0,0,1-3.38,1.55,17.35,17.35,0,0,1-4.81.58,1.8,1.8,0,0,0,0,.28v.25a1.31,1.31,0,0,0,.33,1.07,1.92,1.92,0,0,0,1.12.25,19.94,19.94,0,0,0,6.54-1A14.37,14.37,0,0,0,48.41,171a13.23,13.23,0,0,0,3.28-4.69,15.93,15.93,0,0,0,1.17-6.25A10.63,10.63,0,0,0,51.81,155.09Z"/><path class="cls-3" d="M62.86,179.41a24.85,24.85,0,0,0,5.25-1.62,10.14,10.14,0,0,0,3.49-2.46,5,5,0,0,0,1.27-3.39,4.9,4.9,0,0,0-.57-2.38,5.29,5.29,0,0,0-1.53-1.76,7.21,7.21,0,0,0-2.24-1.1,9.5,9.5,0,0,0-2.69-.38,11.61,11.61,0,0,0-4,.67,12.44,12.44,0,0,0-3.4,1.84,14.2,14.2,0,0,0-2.77,2.76A17.29,17.29,0,0,0,53.61,175a19.12,19.12,0,0,0-1.3,3.89,19.5,19.5,0,0,0-.44,4.07,13.76,13.76,0,0,0,.77,4.68,12.05,12.05,0,0,0,2.14,3.8A10,10,0,0,0,58.06,194a9.4,9.4,0,0,0,4.19.93,10.59,10.59,0,0,0,2.7-.35,11.56,11.56,0,0,0,2.69-1.08,14,14,0,0,0,2.56-1.83,16.07,16.07,0,0,0,2.29-2.58.25.25,0,0,0,.06-.16.43.43,0,0,0-.12-.27,1.33,1.33,0,0,0-.26-.27,4,4,0,0,0-.34-.23l-.29-.16a12.71,12.71,0,0,1-3.65,2.75,8.14,8.14,0,0,1-3.51.85,6.51,6.51,0,0,1-3.16-.8,8,8,0,0,1-2.56-2.24,11.12,11.12,0,0,1-1.7-3.45,15.26,15.26,0,0,1-.62-4.46v-.32A56.8,56.8,0,0,0,62.86,179.41Zm-5.57-3a18.08,18.08,0,0,1,.69-2.31,13,13,0,0,1,1-2.12,8.45,8.45,0,0,1,1.41-1.75A6.24,6.24,0,0,1,62.24,169a5.61,5.61,0,0,1,2.25-.44,3.92,3.92,0,0,1,1.56.32,3.71,3.71,0,0,1,1.24.89,3.88,3.88,0,0,1,.82,1.32,4.46,4.46,0,0,1,.3,1.64,3.72,3.72,0,0,1-.78,2.33,6.17,6.17,0,0,1-2.26,1.75,15.49,15.49,0,0,1-3.62,1.2,33.14,33.14,0,0,1-4.84.66A17.49,17.49,0,0,1,57.29,176.36Z"/><path class="cls-3" d="M99.91,192.33A3.17,3.17,0,0,1,97.23,191a6.89,6.89,0,0,1-1-4.12c0-1.16,0-2.32.11-3.49s.15-2.3.23-3.4.17-2.14.24-3.15.11-1.92.11-2.76a12.08,12.08,0,0,0-.41-3.27,6.41,6.41,0,0,0-1.3-2.47,5.55,5.55,0,0,0-2.3-1.55,9.68,9.68,0,0,0-3.42-.53,12.6,12.6,0,0,0-2.35.23,16.24,16.24,0,0,0-2.52.69,16.65,16.65,0,0,0-2.44,1.09,10.87,10.87,0,0,0-2.08,1.47,7.23,7.23,0,0,0-1.29,1.56,4.68,4.68,0,0,0-.67,1.95,3.26,3.26,0,0,0,.22,1.65,2.6,2.6,0,0,0,.65.93,2.56,2.56,0,0,0,1,.58,3.42,3.42,0,0,0,1.21.21,4.91,4.91,0,0,0,2.19-.54l.07-.21a6.91,6.91,0,0,1-1-1.8,5.41,5.41,0,0,1-.33-1.83,4.07,4.07,0,0,1,.26-1.46,2.89,2.89,0,0,1,.83-1.17,4.27,4.27,0,0,1,1.52-.78,7.86,7.86,0,0,1,2.28-.29,6.44,6.44,0,0,1,2,.34,5.15,5.15,0,0,1,3.11,2.86,6.37,6.37,0,0,1,.49,2.61c0,.9,0,1.72-.08,2.47s-.13,1.53-.22,2.33a32.16,32.16,0,0,0-4.08.25,25.92,25.92,0,0,0-3.79.79,17.43,17.43,0,0,0-3.31,1.31,10.74,10.74,0,0,0-2.62,1.87,8.25,8.25,0,0,0-1.71,2.46,7.23,7.23,0,0,0-.62,3.05,6.43,6.43,0,0,0,.43,2.39,5.45,5.45,0,0,0,1.2,1.89,5.33,5.33,0,0,0,1.85,1.26,6.26,6.26,0,0,0,2.4.46,6.49,6.49,0,0,0,3.06-.77,12.32,12.32,0,0,0,2.74-2,17.89,17.89,0,0,0,2.36-2.84,29,29,0,0,0,1.9-3.23h.11q-.09.56-.12,1.05t0,1a9.16,9.16,0,0,0,.42,2.91A5.65,5.65,0,0,0,93.7,193a5,5,0,0,0,1.81,1.25,6.28,6.28,0,0,0,2.28.41A7.75,7.75,0,0,0,101,194a9.2,9.2,0,0,0,2.78-1.94l-.55-.82A6.52,6.52,0,0,1,99.91,192.33Zm-8.3-9a14.1,14.1,0,0,1-2.53,4.59,10.84,10.84,0,0,1-1.7,1.69,8,8,0,0,1-1.79,1.1,4.36,4.36,0,0,1-1.78.4,2.66,2.66,0,0,1-1.3-.29,2.56,2.56,0,0,1-.89-.81,3.47,3.47,0,0,1-.52-1.19,5.94,5.94,0,0,1-.16-1.42,5.73,5.73,0,0,1,.44-2.31,5.19,5.19,0,0,1,1.21-1.74,6.88,6.88,0,0,1,1.83-1.22,12.42,12.42,0,0,1,2.32-.8,17.71,17.71,0,0,1,2.64-.45q1.38-.15,2.79-.18A11.21,11.21,0,0,1,91.61,183.35Z"/><path class="cls-3" d="M125.61,166.73a3.07,3.07,0,0,0-1.08-.64,4,4,0,0,0-1.35-.23,5.93,5.93,0,0,0-3.78,1.36,13.92,13.92,0,0,0-3.17,3.74,31.25,31.25,0,0,0-2.58,5.61,70.21,70.21,0,0,0-2.07,7l-.19,0c.11-1.13.22-2.26.32-3.4s.2-2.23.28-3.27.15-2,.22-2.94.11-1.72.16-2.41.08-1.26.1-1.69,0-.69,0-.78a3.67,3.67,0,0,0-.54-2.18,2.08,2.08,0,0,0-1.8-.73,14.17,14.17,0,0,0-2.65.46,50.75,50.75,0,0,0-5.12,1.61l.29,1.37,1.21-.29.94-.2.76-.12.67,0a2.59,2.59,0,0,1,1,.16,1.21,1.21,0,0,1,.59.5,2.29,2.29,0,0,1,.25.86,10.68,10.68,0,0,1,.06,1.22q0,.85,0,2.34t-.09,3.36c0,1.25-.1,2.6-.16,4s-.12,2.89-.2,4.36-.16,2.91-.24,4.33-.19,2.74-.29,3.94l.3,0,4-.49c.08-.83.21-1.85.4-3.06s.42-2.51.72-3.88.65-2.8,1.07-4.25.87-2.84,1.39-4.16a26.88,26.88,0,0,1,1.7-3.61,10.46,10.46,0,0,1,2-2.62,4.83,4.83,0,0,1,1.46-.93,4.34,4.34,0,0,1,1.66-.32,3.92,3.92,0,0,1,1.52.29,6.26,6.26,0,0,1,1.51,1h.15a3.73,3.73,0,0,0,1.54-3,2.77,2.77,0,0,0-.26-1.23A2.92,2.92,0,0,0,125.61,166.73Z"/><path class="cls-3" d="M138.31,191.3a8.08,8.08,0,0,1-2,.27,3.08,3.08,0,0,1-.86-.1,1.36,1.36,0,0,1-.63-.41,2.49,2.49,0,0,1-.45-.88,8.24,8.24,0,0,1-.28-1.5c-.07-.62-.12-1.39-.16-2.29s0-2,0-3.23c0-2,0-4.11.11-6.29s.18-4.41.32-6.67.31-4.57.5-6.91.4-4.66.62-7,.46-4.6.7-6.87.5-4.48.76-6.64a5.61,5.61,0,0,0-2.4-.61,5.34,5.34,0,0,0-1,.1,3.25,3.25,0,0,0-.88.29,2,2,0,0,0-.64.54,1.47,1.47,0,0,0-.27.79c-.08,1.33-.18,2.87-.28,4.61s-.21,3.59-.32,5.55-.23,4-.35,6.09-.22,4.18-.32,6.25-.2,4.06-.29,6-.17,3.7-.23,5.33-.13,3.05-.17,4.27-.05,2.17-.05,2.83c0,1.82,0,3.36.08,4.62a15,15,0,0,0,.4,3.07,3.37,3.37,0,0,0,.92,1.71,2.37,2.37,0,0,0,1.62.52,7.71,7.71,0,0,0,1.9-.29,20.55,20.55,0,0,0,2.24-.77c.76-.32,1.48-.67,2.18-1.05a11.93,11.93,0,0,0,1.72-1.13l-.36-1A14.27,14.27,0,0,1,138.31,191.3Z"/><path class="cls-3" d="M156.48,173.73l.06.19a6.33,6.33,0,0,0,1.68.25,3.26,3.26,0,0,0,1.44-.33,2.78,2.78,0,0,0,1-.75,2.66,2.66,0,0,0,.52-1,3.4,3.4,0,0,0,.15-.95,3.68,3.68,0,0,0-.6-2.06,5.12,5.12,0,0,0-1.62-1.55,7.87,7.87,0,0,0-2.38-1,12.22,12.22,0,0,0-2.88-.34,14.63,14.63,0,0,0-2.43.22,13.67,13.67,0,0,0-2.43.67,12.11,12.11,0,0,0-2.22,1.11,8.88,8.88,0,0,0-1.83,1.56,6.94,6.94,0,0,0-1.24,2,6.13,6.13,0,0,0-.46,2.41,6.44,6.44,0,0,0,1.32,4,9.21,9.21,0,0,0,1.45,1.48,18.09,18.09,0,0,0,1.78,1.24c.64.38,1.29.73,2,1.05l2,1c.76.37,1.5.73,2.2,1.09a11.82,11.82,0,0,1,1.86,1.16,5.33,5.33,0,0,1,1.27,1.39,3.26,3.26,0,0,1,.48,1.77,3.43,3.43,0,0,1-.45,1.75,4.17,4.17,0,0,1-1.19,1.32,5.77,5.77,0,0,1-1.71.82,7.14,7.14,0,0,1-2,.28,8.45,8.45,0,0,1-2.26-.32,6.89,6.89,0,0,1-2.06-1,5.71,5.71,0,0,1-2.35-4.21l-.15-.13a5.66,5.66,0,0,0-1.3.18,4.29,4.29,0,0,0-1.16.48,2.63,2.63,0,0,0-.82.84,2.36,2.36,0,0,0-.32,1.26,3.23,3.23,0,0,0,.39,1.57,4.49,4.49,0,0,0,1.07,1.29,7.56,7.56,0,0,0,1.58,1,11.85,11.85,0,0,0,1.91.75,13.18,13.18,0,0,0,2.09.46,15.09,15.09,0,0,0,2.08.15,14,14,0,0,0,3.9-.54,10.53,10.53,0,0,0,3.32-1.59,8,8,0,0,0,2.32-2.57,7,7,0,0,0,.86-3.48,5.62,5.62,0,0,0-.69-2.85,7.88,7.88,0,0,0-1.82-2.14,13.7,13.7,0,0,0-2.55-1.67c-1-.49-1.91-1-2.88-1.42s-1.69-.81-2.48-1.22a13.59,13.59,0,0,1-2.11-1.3,6.23,6.23,0,0,1-1.47-1.53,3.34,3.34,0,0,1-.55-1.87,3.42,3.42,0,0,1,.39-1.58,4.26,4.26,0,0,1,1.13-1.36,5.6,5.6,0,0,1,1.8-1,7.22,7.22,0,0,1,2.41-.37,7.68,7.68,0,0,1,1.56.17,4.85,4.85,0,0,1,1.43.56,3.39,3.39,0,0,1,1.08,1,2.59,2.59,0,0,1,.45,1.47,4.27,4.27,0,0,1-.12,1A5.7,5.7,0,0,1,156.48,173.73Z"/><path class="cls-3" d="M200.75,186a20,20,0,0,0,1.59-7.74,14.94,14.94,0,0,0-.66-4.4,12.7,12.7,0,0,0-1.6-3.36v16.87C200.31,186.9,200.55,186.45,200.75,186Z"/><path class="cls-3" d="M196.6,167.29a8.9,8.9,0,0,0-4.32-1,11.16,11.16,0,0,0-4,.71,12.27,12.27,0,0,0-3.36,1.92,13.85,13.85,0,0,0-2.65,2.85,18.21,18.21,0,0,0-1.94,3.48,20.54,20.54,0,0,0-1.18,3.84,20.19,20.19,0,0,0-.4,3.91,14.88,14.88,0,0,0,.66,4.39,12.36,12.36,0,0,0,1.92,3.84,9.79,9.79,0,0,0,3.15,2.71,8.75,8.75,0,0,0,4.31,1,11.17,11.17,0,0,0,4-.7,12,12,0,0,0,3.35-1.93,14.39,14.39,0,0,0,2.66-2.84,20.49,20.49,0,0,0,1.27-2.12V170.48l-.33-.47A9.82,9.82,0,0,0,196.6,167.29Zm1,15.18a21.14,21.14,0,0,1-.42,2.69,19.23,19.23,0,0,1-.81,2.64,9.42,9.42,0,0,1-1.28,2.27,6,6,0,0,1-1.83,1.59,4.85,4.85,0,0,1-2.44.6,5.75,5.75,0,0,1-2.34-.46,6.3,6.3,0,0,1-1.9-1.26,7.8,7.8,0,0,1-1.47-1.87,13.2,13.2,0,0,1-1-2.32,15.3,15.3,0,0,1-.62-2.57,18.1,18.1,0,0,1-.2-2.62c0-.74.05-1.56.13-2.45a19.67,19.67,0,0,1,.43-2.7,16.91,16.91,0,0,1,.81-2.62,9.07,9.07,0,0,1,1.27-2.27,6.11,6.11,0,0,1,1.83-1.58,5,5,0,0,1,2.45-.59,5.7,5.7,0,0,1,2.33.46,6.63,6.63,0,0,1,1.9,1.24,7.8,7.8,0,0,1,1.47,1.87,13.68,13.68,0,0,1,1,2.3,15.19,15.19,0,0,1,.62,2.56,18,18,0,0,1,.2,2.63A24.49,24.49,0,0,1,197.64,182.47Z"/><path class="cls-3" d="M197.48,209.48a6.89,6.89,0,0,1-1.43-1.14,8,8,0,0,1-1.21-1.69,2.84,2.84,0,0,0-1.1.22,3.4,3.4,0,0,0-.88.56,2.78,2.78,0,0,0-.58.79,2.16,2.16,0,0,0-.21.91,2.62,2.62,0,0,0,.53,1.55A4.78,4.78,0,0,0,194,212a7.74,7.74,0,0,0,2.16.87,10.54,10.54,0,0,0,2.71.33,9.2,9.2,0,0,0,1.17-.08v-2.78a7.24,7.24,0,0,1-1-.17A6.17,6.17,0,0,1,197.48,209.48Z"/></g></g></svg>