<svg xmlns="http://www.w3.org/2000/svg" xmlns:xlink="http://www.w3.org/1999/xlink" viewBox="0 0 200.08 213.12"><defs><style>.cls-1{fill:none;}.cls-2{fill:url(#radial-gradient);}.cls-3{fill:#fff;}.cls-4{fill:url(#radial-gradient-4);}.cls-5{fill:url(#radial-gradient-12);}</style><radialGradient id="radial-gradient" cx="59.67" cy="43.88" fx="78.58278010284569" fy="28.937599473896285" r="24.11" gradientTransform="translate(-0.3 0.31)" gradientUnits="userSpaceOnUse"><stop offset="0.15" stop-color="#00a5d5"/><stop offset="1" stop-color="#3a4a9e"/></radialGradient><radialGradient id="radial-gradient-4" cx="20.8" cy="17.71" fx="20.800408893062922" fy="17.714751490691924" r="92.34" gradientTransform="translate(-0.13 0.3)" xlink:href="#radial-gradient"/><radialGradient id="radial-gradient-12" cx="0.47" cy="129.2" fx="0.47002300507574546" fy="129.19637481189875" r="291.1" gradientTransform="matrix(1, 0, 0, 1, 0, 0)" xlink:href="#radial-gradient"/></defs><title>gateright</title><g id="Layer_2" data-name="Layer 2"><g id="Layer_1-2" data-name="Layer 1"><path class="cls-1" d="M39.05,66.26a61.78,61.78,0,0,1,6.64-2.37,24,24,0,0,1-3.86-3.24A44.34,44.34,0,0,1,39.05,66.26Z"/><path class="cls-1" d="M0,88v20a61.71,61.71,0,0,1,2.1-7.26A67.71,67.71,0,0,1,8.51,87.37,44.11,44.11,0,0,1,1.1,88C.73,88,.37,88,0,88Z"/><path class="cls-1" d="M8.51,87.37A67.71,67.71,0,0,0,2.1,100.76,61.71,61.71,0,0,0,0,108v.36a83.09,83.09,0,0,1,12.91-22C11.47,86.78,10,87.11,8.51,87.37Z"/><path class="cls-1" d="M60.43,174.27a11.33,11.33,0,0,0-4.11-1.91,21.73,21.73,0,0,0-5.56-.64l-1.24,0-1.29.06c0,.78-.06,1.68-.09,2.72s-.09,2.14-.14,3.32-.1,2.4-.16,3.66-.12,2.49-.18,3.69-.13,2.36-.19,3.45-.13,2.06-.19,2.91a19.43,19.43,0,0,0,2.72.5,25.06,25.06,0,0,0,2.61.13,16.12,16.12,0,0,0,4.42-.58,9.75,9.75,0,0,0,3.57-1.83,8.59,8.59,0,0,0,2.38-3.2,11.42,11.42,0,0,0,.87-4.67,10.67,10.67,0,0,0-.88-4.45A8.25,8.25,0,0,0,60.43,174.27Z"/><path class="cls-1" d="M54.68,168.71a12.56,12.56,0,0,0,2.73-1.25,9.07,9.07,0,0,0,2.18-1.85A8.18,8.18,0,0,0,61,163.06a9.72,9.72,0,0,0,.52-3.32,8.65,8.65,0,0,0-.7-3.69,6.22,6.22,0,0,0-1.94-2.42,7.88,7.88,0,0,0-2.87-1.32,15.33,15.33,0,0,0-3.53-.4c-.61,0-1.24,0-1.88.08s-1.29.13-1.93.23c0,.82,0,1.84-.06,3s-.06,2.54-.1,4-.08,3.12-.12,4.87-.09,3.6-.14,5.54a25.61,25.61,0,0,0,3.28-.28A18.08,18.08,0,0,0,54.68,168.71Z"/><path class="cls-1" d="M91.32,174.85a12.58,12.58,0,0,0-1-2.3,8.06,8.06,0,0,0-1.47-1.87,6.66,6.66,0,0,0-1.9-1.25,6,6,0,0,0-2.34-.45,4.85,4.85,0,0,0-2.44.59,5.88,5.88,0,0,0-1.83,1.58A9,9,0,0,0,79,173.41a19.53,19.53,0,0,0-.81,2.63,23,23,0,0,0-.43,2.7c-.08.89-.12,1.71-.12,2.44a18.12,18.12,0,0,0,.2,2.63,14.39,14.39,0,0,0,.62,2.57,12.5,12.5,0,0,0,1,2.32A8.23,8.23,0,0,0,81,190.57a6.54,6.54,0,0,0,1.91,1.26,5.87,5.87,0,0,0,2.33.46,4.89,4.89,0,0,0,2.45-.6,6.29,6.29,0,0,0,1.83-1.59,9.07,9.07,0,0,0,1.27-2.27,16.81,16.81,0,0,0,.81-2.64A21.47,21.47,0,0,0,92,182.5q.12-1.33.12-2.46a16.85,16.85,0,0,0-.2-2.64A14.38,14.38,0,0,0,91.32,174.85Z"/><path class="cls-1" d="M119,174.85a12.62,12.62,0,0,0-1-2.3,8,8,0,0,0-1.46-1.87,6.71,6.71,0,0,0-1.91-1.25,5.87,5.87,0,0,0-2.33-.45,4.88,4.88,0,0,0-2.45.59,6,6,0,0,0-1.82,1.58,9,9,0,0,0-1.28,2.26,17,17,0,0,0-.81,2.63,21,21,0,0,0-.43,2.7c-.08.89-.12,1.71-.12,2.44a18.12,18.12,0,0,0,.2,2.63,14.39,14.39,0,0,0,.62,2.57,12.5,12.5,0,0,0,1,2.32,8.23,8.23,0,0,0,1.46,1.87,6.54,6.54,0,0,0,1.91,1.26,5.87,5.87,0,0,0,2.33.46,4.89,4.89,0,0,0,2.45-.6,6.13,6.13,0,0,0,1.82-1.59,9.09,9.09,0,0,0,1.28-2.27,16.81,16.81,0,0,0,.81-2.64,23.47,23.47,0,0,0,.43-2.69q.12-1.33.12-2.46a18.15,18.15,0,0,0-.2-2.64A14.38,14.38,0,0,0,119,174.85Z"/><path class="cls-2" d="M45.69,63.89A24,24,0,0,0,75,62,70,70,0,0,0,45.69,63.89Z"/><path class="cls-2" d="M73.45,56.32a18.74,18.74,0,0,1-2.81,2.2,18.7,18.7,0,0,0,2.08-3.79,69.9,69.9,0,0,0-30.36,4.58c-.17.45-.35.9-.53,1.34a24,24,0,0,0,3.86,3.24A70,70,0,0,1,75,62c.21-.18.43-.34.63-.54a23.77,23.77,0,0,0,4.47-5.75c-1.76-.31-3.53-.56-5.29-.74C74.36,55.41,73.92,55.88,73.45,56.32Z"/><path class="cls-2" d="M42.36,59.31a69.9,69.9,0,0,1,30.36-4.58A18.72,18.72,0,0,0,45.34,31.82a19.11,19.11,0,0,1,2.35-2.69,18.73,18.73,0,0,1,27.09,25.8c1.76.18,3.53.43,5.29.74A24,24,0,0,0,42.59,26.58c-.27.25-.5.53-.75.79A44,44,0,0,1,45.1,44,43.89,43.89,0,0,1,42.36,59.31Z"/><path class="cls-3" d="M74.16,29.85a18.72,18.72,0,0,0-26.47-.72,19.11,19.11,0,0,0-2.35,2.69A18.72,18.72,0,0,1,72.72,54.73c.69.05,1.37.13,2.06.2A18.72,18.72,0,0,0,74.16,29.85Z"/><path class="cls-3" d="M73.45,56.32c.47-.44.91-.91,1.33-1.39-.69-.07-1.37-.15-2.06-.2a18.7,18.7,0,0,1-2.08,3.79A18.74,18.74,0,0,0,73.45,56.32Z"/><path class="cls-4" d="M12.91,86.38A44,44,0,0,0,39.05,66.26,68.34,68.34,0,0,0,12.91,86.38Z"/><path class="cls-4" d="M41.68,60.51c-.22-.23-.4-.47-.6-.7A69.15,69.15,0,0,0,8.51,87.37c1.49-.26,3-.59,4.4-1A68.34,68.34,0,0,1,39.05,66.26a44.34,44.34,0,0,0,2.78-5.61S41.72,60.56,41.68,60.51Z"/><path class="cls-4" d="M41.08,59.81a23.87,23.87,0,0,1-5.93-14.47c-.1.75-.21,1.51-.35,2.25A34.27,34.27,0,0,0,1.15,19.8c-.39,0-.77,0-1.15,0V88c.37,0,.73,0,1.1,0a44.11,44.11,0,0,0,7.41-.63A69.15,69.15,0,0,1,41.08,59.81Z"/><path class="cls-4" d="M1.15,6.83A34.26,34.26,0,0,1,35.4,40.33a23.85,23.85,0,0,1,6.44-13A44,44,0,0,0,1.1,0C.73,0,.37,0,0,0V6.86C.38,6.84.76,6.83,1.15,6.83Z"/><path class="cls-2" d="M35.42,41.1a34.84,34.84,0,0,1-.27,4.24,23.87,23.87,0,0,0,5.93,14.47c.42-.18.85-.33,1.28-.5A43.89,43.89,0,0,0,45.1,44a44,44,0,0,0-3.26-16.63,23.85,23.85,0,0,0-6.44,13C35.41,40.59,35.42,40.84,35.42,41.1Z"/><path class="cls-4" d="M35.42,41.1a34.84,34.84,0,0,1-.27,4.24,23.87,23.87,0,0,0,5.93,14.47c.42-.18.85-.33,1.28-.5A43.89,43.89,0,0,0,45.1,44a44,44,0,0,0-3.26-16.63,23.85,23.85,0,0,0-6.44,13C35.41,40.59,35.42,40.84,35.42,41.1Z"/><path class="cls-2" d="M41.83,60.65c.18-.44.36-.89.53-1.34-.43.17-.86.32-1.28.5.2.23.38.47.6.7C41.72,60.56,41.78,60.6,41.83,60.65Z"/><path class="cls-4" d="M41.83,60.65c.18-.44.36-.89.53-1.34-.43.17-.86.32-1.28.5.2.23.38.47.6.7C41.72,60.56,41.78,60.6,41.83,60.65Z"/><path class="cls-3" d="M1.15,19.8A34.27,34.27,0,0,1,34.8,47.59c.14-.74.25-1.5.35-2.25a24.73,24.73,0,0,1,.25-5A34.26,34.26,0,0,0,1.15,6.83c-.39,0-.77,0-1.15,0v13C.38,19.82.76,19.8,1.15,19.8Z"/><path class="cls-3" d="M35.15,45.34a34.84,34.84,0,0,0,.27-4.24c0-.26,0-.51,0-.77A24.73,24.73,0,0,0,35.15,45.34Z"/><path class="cls-3" d="M1.2,125H8.91a14.69,14.69,0,0,0,12.85-10.55L26.17,111H185.24l-6.39-12.77L98,75.3S46.66,54.77,8,107.29L.61,113l.32.21Z"/><path class="cls-5" d="M200,114.57a4.6,4.6,0,0,0-4.57-3.57H185.24l.86,1.72V117L26.51,118,1.36,131.75v.13l-.12-.06L0,132.49V134H9.12l.39,0a23.67,23.67,0,0,0,19.84-14H195.58A4.5,4.5,0,0,0,200,114.57Z"/><path class="cls-3" d="M21.76,114.45A14.69,14.69,0,0,1,8.91,125H1.2l.16,6.75L26.51,118l159.59-1v-4.23l-.86-1.72H26.17Z"/><path class="cls-5" d="M21.76,114.45A14.69,14.69,0,0,1,8.91,125H1.2l.16,6.75L26.51,118l159.59-1v-4.23l-.86-1.72H26.17Z"/><path class="cls-3" d="M2.23,212.63a10,10,0,0,0,3.3-1.88,15.43,15.43,0,0,0,3-3.51,25.08,25.08,0,0,0,2.53-5.43,41.42,41.42,0,0,0,1.24-4.62q.52-2.55.92-5.34t.66-5.74q.26-3,.44-5.8c.12-1.91.22-3.75.3-5.53s.14-3.42.19-4.93c1.3.09,2.48.18,3.56.28s2.06.14,2.93.14a6.07,6.07,0,0,0,2-.26,1.07,1.07,0,0,0,.7-1.11,4.34,4.34,0,0,0-.21-1.14l-1.33.11c-.53,0-1.08.06-1.66.06H19.75l-1.39,0-1.65,0-1.84-.05c.06-1.9.13-3.79.22-5.69s.22-3.72.41-5.45a37.19,37.19,0,0,1,.87-4.87,15.06,15.06,0,0,1,1.55-3.92,7.76,7.76,0,0,1,2.46-2.62,6.48,6.48,0,0,1,3.61-1,5.68,5.68,0,0,1,1.46.19,4,4,0,0,1,1.33.61,3.22,3.22,0,0,1,1,1.07,3.12,3.12,0,0,1,.37,1.57,4.69,4.69,0,0,1-.18,1.3,11.91,11.91,0,0,1-.54,1.46l.07.21a4.41,4.41,0,0,0,1.85.44,3.32,3.32,0,0,0,1.26-.23,3.2,3.2,0,0,0,1-.65,3.16,3.16,0,0,0,.7-1.06,3.8,3.8,0,0,0,.26-1.43,4.29,4.29,0,0,0-.53-2A5.63,5.63,0,0,0,30.53,144a8.14,8.14,0,0,0-2.44-1.27,10.05,10.05,0,0,0-3.28-.49,11.47,11.47,0,0,0-2.57.3,10.74,10.74,0,0,0-2.59.93,13.29,13.29,0,0,0-2.49,1.63,13.75,13.75,0,0,0-2.24,2.37,16.34,16.34,0,0,0-1.86,3.16,20.28,20.28,0,0,0-1.33,4c-.27,1.14-.49,2.24-.67,3.31s-.33,2.13-.45,3.19-.22,2.13-.29,3.22-.14,2.22-.19,3.42a19.24,19.24,0,0,0-2.47.25,10,10,0,0,0-1.91.49,4,4,0,0,0-1.22.69,1.13,1.13,0,0,0-.44.85.73.73,0,0,0,.08.36,9.7,9.7,0,0,1,2.55-.49c1-.08,2.12-.12,3.31-.13,0,3.82-.07,7.47-.14,10.95s-.21,6.73-.42,9.74-.51,5.72-.91,8.17a29.75,29.75,0,0,1-1.62,6.28,11.07,11.07,0,0,1-2.57,4,5.34,5.34,0,0,1-3.73,1.42c-.21,0-.43,0-.64,0v2.78A10.5,10.5,0,0,0,2.23,212.63Z"/><path class="cls-3" d="M65.73,173.34a13,13,0,0,0-4.19-2.12,24.18,24.18,0,0,0-5.28-.95v-.17a22.26,22.26,0,0,0,4.14-1.53,14.17,14.17,0,0,0,3.46-2.38,10.64,10.64,0,0,0,2.39-3.34,10.27,10.27,0,0,0,.89-4.37,8.59,8.59,0,0,0-.5-3,7.07,7.07,0,0,0-1.37-2.3,7.74,7.74,0,0,0-2.07-1.63,12.54,12.54,0,0,0-2.63-1,19.85,19.85,0,0,0-3-.57,31.75,31.75,0,0,0-3.26-.17c-1.35,0-2.76.06-4.21.18s-2.91.28-4.35.47-2.84.4-4.19.63-2.62.45-3.78.67l.2,1.69a23,23,0,0,1,3.21-.28,5.37,5.37,0,0,1,1.51.17,1.93,1.93,0,0,1,.92.53,2,2,0,0,1,.47.93,6.07,6.07,0,0,1,.13,1.37q0,3.18,0,6.55t-.09,6.75q-.07,3.4-.18,6.76c-.08,2.23-.16,4.41-.26,6.53s-.21,4.15-.34,6.09-.29,3.75-.45,5.43l.34,0,3.7-.44c1.15.19,2.24.35,3.26.47a25.47,25.47,0,0,0,7.21-.12,19.85,19.85,0,0,0,3.77-1,16,16,0,0,0,3.32-1.69,11.18,11.18,0,0,0,4.42-5.79,12.8,12.8,0,0,0,.64-4.19,10.6,10.6,0,0,0-1-4.78A9.61,9.61,0,0,0,65.73,173.34Zm-17.3-9.18c0-1.75.09-3.37.12-4.87s.07-2.83.1-4,0-2.22.06-3c.64-.1,1.29-.18,1.93-.23s1.27-.08,1.88-.08a15.33,15.33,0,0,1,3.53.4,7.88,7.88,0,0,1,2.87,1.32,6.22,6.22,0,0,1,1.94,2.42,8.65,8.65,0,0,1,.7,3.69,9.72,9.72,0,0,1-.52,3.32,8.18,8.18,0,0,1-1.45,2.55,9.07,9.07,0,0,1-2.18,1.85,12.56,12.56,0,0,1-2.73,1.25,18.08,18.08,0,0,1-3.11.71,25.61,25.61,0,0,1-3.28.28C48.34,167.76,48.39,165.91,48.43,164.16ZM63,186.58a8.59,8.59,0,0,1-2.38,3.2A9.75,9.75,0,0,1,57,191.61a16.12,16.12,0,0,1-4.42.58,25.06,25.06,0,0,1-2.61-.13,19.43,19.43,0,0,1-2.72-.5c.06-.85.13-1.82.19-2.91s.13-2.24.19-3.45.12-2.44.18-3.69S48,179,48,177.85s.1-2.29.14-3.32.07-1.94.09-2.72l1.29-.06,1.24,0a21.73,21.73,0,0,1,5.56.64,11.33,11.33,0,0,1,4.11,1.91A8.25,8.25,0,0,1,63,177.46a10.67,10.67,0,0,1,.88,4.45A11.42,11.42,0,0,1,63,186.58Z"/><path class="cls-3" d="M94.12,170A9.92,9.92,0,0,0,91,167.32a8.78,8.78,0,0,0-4.31-1,11.17,11.17,0,0,0-4,.71,12.22,12.22,0,0,0-3.35,1.92,14.17,14.17,0,0,0-2.66,2.85,17.87,17.87,0,0,0-1.93,3.48,20.54,20.54,0,0,0-1.18,3.84,19.42,19.42,0,0,0-.4,3.9,14.89,14.89,0,0,0,.66,4.4,12.14,12.14,0,0,0,1.92,3.84,9.65,9.65,0,0,0,3.14,2.71,8.79,8.79,0,0,0,4.32,1,11.15,11.15,0,0,0,4-.7,12.25,12.25,0,0,0,3.35-1.93,14.1,14.1,0,0,0,2.66-2.84A18.29,18.29,0,0,0,95.12,186a19.18,19.18,0,0,0,1.19-3.84,19.42,19.42,0,0,0,.4-3.9,15.27,15.27,0,0,0-.65-4.4A12.4,12.4,0,0,0,94.12,170ZM92,182.5a21.47,21.47,0,0,1-.43,2.69,16.81,16.81,0,0,1-.81,2.64,9.07,9.07,0,0,1-1.27,2.27,6.29,6.29,0,0,1-1.83,1.59,4.89,4.89,0,0,1-2.45.6,5.87,5.87,0,0,1-2.33-.46A6.54,6.54,0,0,1,81,190.57a8.23,8.23,0,0,1-1.46-1.87,12.5,12.5,0,0,1-1-2.32,14.39,14.39,0,0,1-.62-2.57,18.12,18.12,0,0,1-.2-2.63c0-.73,0-1.55.12-2.44a23,23,0,0,1,.43-2.7,19.53,19.53,0,0,1,.81-2.63,9,9,0,0,1,1.28-2.26,5.88,5.88,0,0,1,1.83-1.58,4.85,4.85,0,0,1,2.44-.59,6,6,0,0,1,2.34.45,6.66,6.66,0,0,1,1.9,1.25,8.06,8.06,0,0,1,1.47,1.87,12.58,12.58,0,0,1,1,2.3,14.38,14.38,0,0,1,.62,2.55,16.85,16.85,0,0,1,.2,2.64Q92.14,181.17,92,182.5Z"/><path class="cls-3" d="M121.83,170a9.92,9.92,0,0,0-3.15-2.71,8.78,8.78,0,0,0-4.31-1,11.17,11.17,0,0,0-4,.71,12.22,12.22,0,0,0-3.35,1.92,13.89,13.89,0,0,0-2.66,2.85,17.87,17.87,0,0,0-1.93,3.48,19.83,19.83,0,0,0-1.18,3.84,19.42,19.42,0,0,0-.4,3.9,15.22,15.22,0,0,0,.65,4.4,12.16,12.16,0,0,0,1.93,3.84,9.65,9.65,0,0,0,3.14,2.71,8.78,8.78,0,0,0,4.31,1,11.17,11.17,0,0,0,4-.7,12.25,12.25,0,0,0,3.35-1.93,14.1,14.1,0,0,0,2.66-2.84,18.86,18.86,0,0,0,1.94-3.49,19.85,19.85,0,0,0,1.19-3.84,19.42,19.42,0,0,0,.4-3.9,14.94,14.94,0,0,0-.66-4.4A12.17,12.17,0,0,0,121.83,170Zm-2.1,12.47a23.47,23.47,0,0,1-.43,2.69,16.81,16.81,0,0,1-.81,2.64,9.09,9.09,0,0,1-1.28,2.27,6.13,6.13,0,0,1-1.82,1.59,4.89,4.89,0,0,1-2.45.6,5.87,5.87,0,0,1-2.33-.46,6.54,6.54,0,0,1-1.91-1.26,8.23,8.23,0,0,1-1.46-1.87,12.5,12.5,0,0,1-1-2.32,14.39,14.39,0,0,1-.62-2.57,18.12,18.12,0,0,1-.2-2.63c0-.73,0-1.55.12-2.44a21,21,0,0,1,.43-2.7,17,17,0,0,1,.81-2.63,9,9,0,0,1,1.28-2.26,6,6,0,0,1,1.82-1.58,4.88,4.88,0,0,1,2.45-.59,5.87,5.87,0,0,1,2.33.45,6.71,6.71,0,0,1,1.91,1.25,8,8,0,0,1,1.46,1.87,12.62,12.62,0,0,1,1,2.3,14.38,14.38,0,0,1,.62,2.55,18.15,18.15,0,0,1,.2,2.64Q119.85,181.17,119.73,182.5Z"/><path class="cls-3" d="M155.1,191.37a7.63,7.63,0,0,1-2.06.31,4.77,4.77,0,0,1-1-.11,3.32,3.32,0,0,1-1.05-.45,6,6,0,0,1-1.23-1,14.73,14.73,0,0,1-1.5-1.79c-.55-.76-1.17-1.69-1.84-2.8s-1.45-2.45-2.3-4a28.51,28.51,0,0,0,3.91-2.28,17.82,17.82,0,0,0,3-2.6,10.84,10.84,0,0,0,1.94-2.85,7.23,7.23,0,0,0,.69-3.07,4.89,4.89,0,0,0-.33-1.83,4.06,4.06,0,0,0-2.35-2.29,5,5,0,0,0-1.79-.32,7.11,7.11,0,0,0-3.05.7,12.51,12.51,0,0,0-2.92,1.91,19.56,19.56,0,0,0-2.7,2.91,31.08,31.08,0,0,0-2.42,3.67,44.08,44.08,0,0,0-3.67,8.68l-.12,0c.13-1.79.25-3.47.35-5s.22-3.07.32-4.53.21-2.9.31-4.32.23-2.86.35-4.34.25-3,.41-4.65.32-3.35.5-5.21.39-3.88.62-6,.49-4.56.78-7.16a5.47,5.47,0,0,0-2.4-.61,5,5,0,0,0-1,.1,3.25,3.25,0,0,0-.88.29,1.68,1.68,0,0,0-.64.54,1.32,1.32,0,0,0-.27.79q-.15,3-.32,6.22c-.12,2.17-.23,4.39-.35,6.66s-.25,4.56-.38,6.88-.25,4.63-.37,6.91-.24,4.53-.36,6.74-.23,4.32-.34,6.35-.21,4-.31,5.76-.18,3.46-.25,5l.3,0,3.85-.5a57.88,57.88,0,0,1,1.31-6.62,50.25,50.25,0,0,1,1.85-5.7,34.47,34.47,0,0,1,2.23-4.63,22,22,0,0,1,2.46-3.44,10.64,10.64,0,0,1,2.56-2.15,4.89,4.89,0,0,1,2.48-.75,2.77,2.77,0,0,1,1,.17,2.4,2.4,0,0,1,.78.49,2.33,2.33,0,0,1,.54.76,2.45,2.45,0,0,1,.2,1,4.74,4.74,0,0,1-.75,2.5,9.15,9.15,0,0,1-2.1,2.32A18.77,18.77,0,0,1,143.5,180a29.89,29.89,0,0,1-4.17,1.73l-.07.23c1.21,2.24,2.29,4.18,3.23,5.8a44.35,44.35,0,0,0,2.58,4,11,11,0,0,0,2.19,2.34,3.46,3.46,0,0,0,2.05.75,8.23,8.23,0,0,0,2-.3,16.58,16.58,0,0,0,2.32-.77,20.6,20.6,0,0,0,2.22-1,11.81,11.81,0,0,0,1.73-1.13l-.36-1A14.84,14.84,0,0,1,155.1,191.37Z"/><path class="cls-3" d="M172.77,173.76l.06.19a6.32,6.32,0,0,0,1.67.25,3.41,3.41,0,0,0,1.45-.33,2.78,2.78,0,0,0,1-.75,2.66,2.66,0,0,0,.52-1,3.46,3.46,0,0,0,.15-1,3.65,3.65,0,0,0-.6-2,5.12,5.12,0,0,0-1.62-1.55,8.14,8.14,0,0,0-2.38-1,12.22,12.22,0,0,0-2.88-.33,13.89,13.89,0,0,0-4.86.89,12.11,12.11,0,0,0-2.22,1.11,9.16,9.16,0,0,0-1.83,1.55,7.08,7.08,0,0,0-1.24,2,6.21,6.21,0,0,0-.46,2.42,6.8,6.8,0,0,0,.35,2.22,6.69,6.69,0,0,0,1,1.81,9.21,9.21,0,0,0,1.45,1.48A16.47,16.47,0,0,0,164,181c.64.38,1.29.74,2,1.06l2,1,2.2,1.09a11.13,11.13,0,0,1,1.86,1.16,5.51,5.51,0,0,1,1.27,1.39,3.26,3.26,0,0,1,.48,1.77,3.43,3.43,0,0,1-.45,1.75,4.17,4.17,0,0,1-1.19,1.32,5.75,5.75,0,0,1-1.71.81,7.15,7.15,0,0,1-2,.29,8.45,8.45,0,0,1-2.26-.32,6.89,6.89,0,0,1-2.06-1,5.62,5.62,0,0,1-2.35-4.21l-.15-.14a7,7,0,0,0-1.3.18,4.31,4.31,0,0,0-1.16.49,2.63,2.63,0,0,0-.82.84,2.36,2.36,0,0,0-.32,1.26,3.23,3.23,0,0,0,.39,1.57,4.78,4.78,0,0,0,1.07,1.29,7.56,7.56,0,0,0,1.58,1,11.85,11.85,0,0,0,1.91.75,13.18,13.18,0,0,0,2.09.46,15,15,0,0,0,2.08.15,14,14,0,0,0,3.9-.54,10.53,10.53,0,0,0,3.32-1.59,8,8,0,0,0,2.31-2.57,6.93,6.93,0,0,0,.87-3.49,5.61,5.61,0,0,0-.69-2.84,8.08,8.08,0,0,0-1.82-2.15,13.93,13.93,0,0,0-2.56-1.66c-.95-.49-1.91-1-2.87-1.42s-1.69-.81-2.49-1.22a14.82,14.82,0,0,1-2.1-1.3,6.6,6.6,0,0,1-1.47-1.53,3.43,3.43,0,0,1-.16-3.45,4.29,4.29,0,0,1,1.13-1.37,5.49,5.49,0,0,1,1.8-1,7.49,7.49,0,0,1,2.41-.36,7.68,7.68,0,0,1,1.56.17,5.12,5.12,0,0,1,1.43.55,3.76,3.76,0,0,1,1.08,1,2.73,2.73,0,0,1,.45,1.48,4.19,4.19,0,0,1-.12.95A5.56,5.56,0,0,1,172.77,173.76Z"/></g></g></svg>