<svg xmlns="http://www.w3.org/2000/svg" viewBox="0 0 355.14 70.97"><defs><style>.cls-1{fill:#fff;}</style></defs><title>Logotext</title><g id="Layer_2" data-name="Layer 2"><g id="Layer_1-2" data-name="Layer 1"><path class="cls-1" d="M6.47,13.88a6.07,6.07,0,0,0-.13-1.37,2,2,0,0,0-.47-.93A2,2,0,0,0,5,11a5.63,5.63,0,0,0-1.5-.17,23.42,23.42,0,0,0-3.22.29L0,9.46,3.91,8.8c1.42-.23,2.87-.44,4.36-.63s3-.35,4.5-.47,3-.18,4.33-.18a25.49,25.49,0,0,1,5.15.5A11.92,11.92,0,0,1,26.46,9.7a8.54,8.54,0,0,1,2.85,3.19,10.69,10.69,0,0,1,1,5,16,16,0,0,1-1.17,6.26,13.2,13.2,0,0,1-3.28,4.69,14.41,14.41,0,0,1-5.08,2.94,19.94,19.94,0,0,1-6.54,1,1.85,1.85,0,0,1-1.12-.25,1.29,1.29,0,0,1-.33-1.06v-.25a1.7,1.7,0,0,1,0-.28,17.32,17.32,0,0,0,4.81-.59A11.13,11.13,0,0,0,21,28.82a8.14,8.14,0,0,0,2.19-2.19,10.49,10.49,0,0,0,1.26-2.53,12.22,12.22,0,0,0,.57-2.58,22,22,0,0,0,.13-2.31,11.77,11.77,0,0,0-.77-4.59,7.4,7.4,0,0,0-2.09-2.93,7.91,7.91,0,0,0-3.1-1.53,15.22,15.22,0,0,0-3.77-.45c-.67,0-1.31,0-1.93.08s-1.29.12-2,.21c0,1-.06,2.28-.1,3.92s-.1,3.52-.16,5.65-.12,4.45-.2,7-.15,5.18-.22,7.94-.16,5.59-.25,8.51-.18,5.82-.27,8.71l-4.51.57-.34,0q.23-5.46.41-10.36c.13-3.26.24-6.43.32-9.53s.15-6.15.2-9.18S6.47,17.06,6.47,13.88Z"/><path class="cls-1" d="M49,45.82l.3.16a2.75,2.75,0,0,1,.33.23,2.23,2.23,0,0,1,.27.26.5.5,0,0,1,.11.28.24.24,0,0,1-.06.15,15.6,15.6,0,0,1-2.29,2.58,14.32,14.32,0,0,1-2.55,1.83,11.67,11.67,0,0,1-2.7,1.09,11,11,0,0,1-2.7.35,9.4,9.4,0,0,1-4.19-.93,10.23,10.23,0,0,1-3.28-2.56,12,12,0,0,1-2.14-3.8,14,14,0,0,1-.77-4.67,18.89,18.89,0,0,1,.45-4.08,19.64,19.64,0,0,1,1.29-3.88,18.37,18.37,0,0,1,2.07-3.44,14.2,14.2,0,0,1,2.77-2.76,12.9,12.9,0,0,1,3.41-1.84,11.85,11.85,0,0,1,4-.66,9.09,9.09,0,0,1,2.68.38,7.19,7.19,0,0,1,2.24,1.09,5.42,5.42,0,0,1,1.53,1.77,4.87,4.87,0,0,1,.57,2.38,5,5,0,0,1-1.26,3.38,10,10,0,0,1-3.5,2.46,24.73,24.73,0,0,1-5.24,1.63,57.37,57.37,0,0,1-6.53.92v.33a15.19,15.19,0,0,0,.62,4.45,11.08,11.08,0,0,0,1.71,3.46,8,8,0,0,0,2.55,2.24,6.54,6.54,0,0,0,3.16.8,8.25,8.25,0,0,0,3.51-.85A12.9,12.9,0,0,0,49,45.82ZM45.9,30.53a4.63,4.63,0,0,0-.29-1.64,4.19,4.19,0,0,0-.82-1.33,4,4,0,0,0-1.25-.88A3.69,3.69,0,0,0,42,26.36a5.61,5.61,0,0,0-2.25.43A6.6,6.6,0,0,0,37.92,28a8.79,8.79,0,0,0-1.41,1.76,12.6,12.6,0,0,0-1,2.12,16.93,16.93,0,0,0-.7,2.3,19.83,19.83,0,0,0-.38,2.31,34.94,34.94,0,0,0,4.85-.66,15.56,15.56,0,0,0,3.61-1.2,6.27,6.27,0,0,0,2.26-1.75A3.74,3.74,0,0,0,45.9,30.53Z"/><path class="cls-1" d="M70.12,32.1a6.28,6.28,0,0,0-.49-2.6,5.1,5.1,0,0,0-1.3-1.81,5.26,5.26,0,0,0-1.8-1.05,6.25,6.25,0,0,0-2-.34,8,8,0,0,0-2.29.28,4.13,4.13,0,0,0-1.51.78,2.83,2.83,0,0,0-.84,1.17A4.15,4.15,0,0,0,59.61,30,5.24,5.24,0,0,0,60,31.83a7.25,7.25,0,0,0,1,1.8l-.08.21a5,5,0,0,1-2.19.53,3.7,3.7,0,0,1-1.21-.2,2.79,2.79,0,0,1-1-.58,2.73,2.73,0,0,1-.65-.93A3.39,3.39,0,0,1,55.62,31a4.53,4.53,0,0,1,.66-2,6.58,6.58,0,0,1,1.3-1.56A10.09,10.09,0,0,1,59.65,26a17.2,17.2,0,0,1,2.44-1.1,18.12,18.12,0,0,1,2.52-.68A12.74,12.74,0,0,1,67,24a9.59,9.59,0,0,1,3.42.54,5.52,5.52,0,0,1,2.31,1.55A6.29,6.29,0,0,1,74,28.56a12.21,12.21,0,0,1,.41,3.28c0,.84,0,1.76-.1,2.76s-.15,2-.24,3.15-.17,2.23-.24,3.4-.11,2.33-.11,3.49a6.91,6.91,0,0,0,1,4.12,3.17,3.17,0,0,0,2.68,1.38,6.42,6.42,0,0,0,3.27-1.09l.56.82a9.15,9.15,0,0,1-2.78,1.94,7.67,7.67,0,0,1-3.16.67A6.1,6.1,0,0,1,73,52.06a4.83,4.83,0,0,1-1.81-1.25A5.61,5.61,0,0,1,70,48.73a9.2,9.2,0,0,1-.42-2.91q0-.49,0-1t.12-1h-.11A29,29,0,0,1,67.73,47a17.29,17.29,0,0,1-2.36,2.83,11.53,11.53,0,0,1-2.74,2,6.38,6.38,0,0,1-3.06.77,6.17,6.17,0,0,1-2.39-.45,5.56,5.56,0,0,1-1.86-1.26,5.4,5.4,0,0,1-1.2-1.9,6.34,6.34,0,0,1-.43-2.38,7.36,7.36,0,0,1,.62-3A8,8,0,0,1,56,41.13a10.67,10.67,0,0,1,2.62-1.87A18.24,18.24,0,0,1,62,37.94a24.3,24.3,0,0,1,3.78-.78,32.39,32.39,0,0,1,4.08-.26c.09-.8.16-1.57.22-2.32S70.12,33,70.12,32.1ZM58.43,45.23a6.57,6.57,0,0,0,.16,1.42,3.56,3.56,0,0,0,.52,1.19,2.56,2.56,0,0,0,.89.81,2.81,2.81,0,0,0,1.31.29,4.35,4.35,0,0,0,1.77-.4,8.22,8.22,0,0,0,1.8-1.1,11.24,11.24,0,0,0,1.69-1.69A14.14,14.14,0,0,0,68,43.61a14.93,14.93,0,0,0,1.08-2.45,12.41,12.41,0,0,0,.56-2.64c-.94,0-1.87.09-2.8.19a19.12,19.12,0,0,0-2.64.44,13.07,13.07,0,0,0-2.31.8,6.73,6.73,0,0,0-1.84,1.23,5.4,5.4,0,0,0-1.21,1.73A5.78,5.78,0,0,0,58.43,45.23Z"/><path class="cls-1" d="M85,51.85l-.31,0c.11-1.21.2-2.52.29-3.94s.17-2.87.25-4.33.14-2.92.2-4.37.1-2.78.15-4,.08-2.37.09-3.36,0-1.77,0-2.35,0-.87-.05-1.21a2.24,2.24,0,0,0-.26-.86,1.21,1.21,0,0,0-.58-.51,2.89,2.89,0,0,0-1-.16,5.12,5.12,0,0,0-.67,0l-.76.11-.94.2-1.21.3L79.89,26A50,50,0,0,1,85,24.38a14.42,14.42,0,0,1,2.64-.47,2.09,2.09,0,0,1,1.8.74A3.65,3.65,0,0,1,90,26.83c0,.09,0,.35,0,.78s-.06,1-.11,1.68-.1,1.5-.16,2.41-.14,1.9-.22,2.94-.17,2.14-.27,3.28-.21,2.27-.33,3.4l.19,0a70.21,70.21,0,0,1,2.07-7,30.92,30.92,0,0,1,2.59-5.61A13.59,13.59,0,0,1,96.89,25a6,6,0,0,1,3.78-1.36,4,4,0,0,1,1.35.22,3.56,3.56,0,0,1,1.09.64,3.15,3.15,0,0,1,.72,1,2.84,2.84,0,0,1,.27,1.23,4,4,0,0,1-.37,1.65,3.79,3.79,0,0,1-1.18,1.4h-.15a5.7,5.7,0,0,0-1.51-1,3.89,3.89,0,0,0-1.52-.3,4.26,4.26,0,0,0-1.65.33,4.68,4.68,0,0,0-1.47.93,11,11,0,0,0-2,2.62A25.77,25.77,0,0,0,92.53,36a43.14,43.14,0,0,0-1.39,4.16c-.41,1.45-.77,2.87-1.07,4.24s-.54,2.68-.72,3.89S89,50.53,89,51.35Z"/><path class="cls-1" d="M114.42.61q-.39,3.24-.75,6.64T113,14.12c-.22,2.32-.43,4.64-.62,7s-.35,4.64-.49,6.9-.25,4.49-.33,6.68-.11,4.28-.11,6.28c0,1.26,0,2.34,0,3.24s.08,1.66.15,2.28A7.35,7.35,0,0,0,111.9,48a2.51,2.51,0,0,0,.44.87,1.28,1.28,0,0,0,.63.41,3.1,3.1,0,0,0,.86.11,7.6,7.6,0,0,0,2-.28,12.85,12.85,0,0,0,2.14-.77l.36,1a12.22,12.22,0,0,1-1.72,1.13,23.08,23.08,0,0,1-2.18,1,16.54,16.54,0,0,1-2.24.77,7.32,7.32,0,0,1-1.89.3,2.43,2.43,0,0,1-1.63-.52,3.29,3.29,0,0,1-.91-1.71,15,15,0,0,1-.41-3.08c0-1.26-.08-2.8-.08-4.61,0-.66,0-1.6.06-2.83s.09-2.65.16-4.28.15-3.4.24-5.33.18-3.92.28-6,.21-4.14.33-6.24.22-4.14.34-6.1.22-3.81.32-5.55.2-3.27.29-4.61a1.43,1.43,0,0,1,.26-.79,1.84,1.84,0,0,1,.64-.53A3.25,3.25,0,0,1,111,.1a4.59,4.59,0,0,1,1-.1A5.47,5.47,0,0,1,114.42.61Z"/><path class="cls-1" d="M123,44.85a5.7,5.7,0,0,0,.77,2.49,5.62,5.62,0,0,0,1.57,1.71,6.39,6.39,0,0,0,2.07,1,8,8,0,0,0,2.25.33,7.15,7.15,0,0,0,2-.29,5.43,5.43,0,0,0,1.71-.82A3.92,3.92,0,0,0,134.59,48,3.43,3.43,0,0,0,135,46.2a3.34,3.34,0,0,0-.47-1.77A5.56,5.56,0,0,0,133.29,43a10.37,10.37,0,0,0-1.86-1.16c-.7-.36-1.43-.72-2.2-1.09l-2-1c-.68-.33-1.34-.68-2-1.06a15.35,15.35,0,0,1-1.79-1.24A8.33,8.33,0,0,1,122,36.06a6.18,6.18,0,0,1-1-1.81,6.54,6.54,0,0,1-.36-2.22,6.36,6.36,0,0,1,.46-2.42,7.11,7.11,0,0,1,1.25-2,8.35,8.35,0,0,1,1.83-1.55A11.72,11.72,0,0,1,126.43,25a13.89,13.89,0,0,1,4.86-.89,12.24,12.24,0,0,1,2.89.33,8.26,8.26,0,0,1,2.38,1,5.09,5.09,0,0,1,1.61,1.55,3.65,3.65,0,0,1,.6,2.05,3.46,3.46,0,0,1-.15,1,2.79,2.79,0,0,1-.51,1,2.88,2.88,0,0,1-1,.75,3.34,3.34,0,0,1-1.45.32,6.42,6.42,0,0,1-1.68-.24l-.05-.19a7.51,7.51,0,0,0,.38-1.13,4.78,4.78,0,0,0,.11-.95A2.55,2.55,0,0,0,134,28,3.47,3.47,0,0,0,133,27a5.07,5.07,0,0,0-1.44-.55,7.82,7.82,0,0,0-4,.19,5.7,5.7,0,0,0-1.8,1A4.33,4.33,0,0,0,124.62,29a3.45,3.45,0,0,0-.39,1.58,3.29,3.29,0,0,0,.55,1.88,6.33,6.33,0,0,0,1.46,1.52,13.61,13.61,0,0,0,2.11,1.31c.79.41,1.62.81,2.48,1.22s1.93.93,2.88,1.42a14.18,14.18,0,0,1,2.55,1.66,7.86,7.86,0,0,1,1.82,2.14,5.67,5.67,0,0,1,.69,2.85,6.92,6.92,0,0,1-.86,3.49,8.13,8.13,0,0,1-2.32,2.57,10.53,10.53,0,0,1-3.32,1.59,14,14,0,0,1-3.89.54,15.12,15.12,0,0,1-2.09-.15,14,14,0,0,1-2.08-.46,12,12,0,0,1-1.92-.75,7.56,7.56,0,0,1-1.58-1,4.63,4.63,0,0,1-1.06-1.3,3.18,3.18,0,0,1-.39-1.57,2.34,2.34,0,0,1,.31-1.25,2.66,2.66,0,0,1,.83-.84,3.84,3.84,0,0,1,1.15-.49,7.14,7.14,0,0,1,1.3-.18Z"/><path class="cls-1" d="M156.24,40.77a19.42,19.42,0,0,1,.4-3.9A19.83,19.83,0,0,1,157.82,33a18.25,18.25,0,0,1,1.93-3.49,14.1,14.1,0,0,1,2.66-2.84,12.22,12.22,0,0,1,3.35-1.92,11.17,11.17,0,0,1,4-.71,8.78,8.78,0,0,1,4.31,1,9.79,9.79,0,0,1,3.15,2.71,12.06,12.06,0,0,1,1.93,3.84,14.89,14.89,0,0,1,.66,4.4,19.42,19.42,0,0,1-.4,3.9,19.85,19.85,0,0,1-1.19,3.84,18.46,18.46,0,0,1-1.94,3.48,13.89,13.89,0,0,1-2.66,2.85A12,12,0,0,1,170.29,52a11.17,11.17,0,0,1-4,.71,8.78,8.78,0,0,1-4.31-1A9.65,9.65,0,0,1,158.82,49a12.38,12.38,0,0,1-1.93-3.84A15.22,15.22,0,0,1,156.24,40.77ZM160.79,39a18.12,18.12,0,0,0,.2,2.63,14.39,14.39,0,0,0,.62,2.57,12.12,12.12,0,0,0,1,2.31,8.08,8.08,0,0,0,1.46,1.88A6.74,6.74,0,0,0,166,49.61a5.87,5.87,0,0,0,2.33.45,4.89,4.89,0,0,0,2.45-.6,6.13,6.13,0,0,0,1.82-1.59,9,9,0,0,0,1.28-2.26,16.81,16.81,0,0,0,.81-2.64,23.47,23.47,0,0,0,.43-2.69q.12-1.34.12-2.46a18,18,0,0,0-.2-2.64,14.38,14.38,0,0,0-.62-2.55,12.32,12.32,0,0,0-1-2.3,8,8,0,0,0-1.46-1.87A6.71,6.71,0,0,0,170,27.21a5.87,5.87,0,0,0-2.33-.45,4.88,4.88,0,0,0-2.45.59,6,6,0,0,0-1.82,1.58,9,9,0,0,0-1.28,2.26,17,17,0,0,0-.81,2.63,21.18,21.18,0,0,0-.43,2.69C160.83,37.41,160.79,38.23,160.79,39Z"/><path class="cls-1" d="M192.44,25.59l1.84.06,1.65,0,1.39,0h1.06c.58,0,1.14,0,1.66-.06l1.33-.11a4.34,4.34,0,0,1,.21,1.14,1,1,0,0,1-.7,1.1,5.77,5.77,0,0,1-2,.27c-.87,0-1.85-.05-2.93-.14s-2.26-.19-3.56-.28c0,1.51-.11,3.16-.19,4.93s-.17,3.62-.3,5.53-.26,3.83-.44,5.79-.4,3.88-.66,5.75-.57,3.64-.92,5.34a41.42,41.42,0,0,1-1.24,4.62A25.08,25.08,0,0,1,186.1,65a15.43,15.43,0,0,1-3,3.51,10,10,0,0,1-3.3,1.88,11,11,0,0,1-6.11.24,8.19,8.19,0,0,1-2.16-.88,4.63,4.63,0,0,1-1.44-1.28,2.63,2.63,0,0,1-.52-1.55,2.12,2.12,0,0,1,.21-.91,2.49,2.49,0,0,1,.58-.79,3.1,3.1,0,0,1,.87-.56,2.67,2.67,0,0,1,1.1-.22,8.25,8.25,0,0,0,1.22,1.69A6.64,6.64,0,0,0,175,67.29a5.89,5.89,0,0,0,1.58.66,7,7,0,0,0,1.65.21,5.34,5.34,0,0,0,3.73-1.42,11.07,11.07,0,0,0,2.57-4,29.75,29.75,0,0,0,1.62-6.28c.4-2.45.7-5.17.91-8.18s.35-6.24.42-9.73.12-7.13.14-11c-1.19,0-2.3.06-3.31.14a9.3,9.3,0,0,0-2.55.49.73.73,0,0,1-.08-.36,1.15,1.15,0,0,1,.44-.85,3.9,3.9,0,0,1,1.23-.69,10.37,10.37,0,0,1,1.9-.5,19.34,19.34,0,0,1,2.47-.24c.05-1.2.11-2.34.19-3.42s.17-2.16.29-3.22.27-2.12.45-3.19.4-2.17.67-3.31a20.06,20.06,0,0,1,1.33-4,16.34,16.34,0,0,1,1.86-3.16,13.75,13.75,0,0,1,2.24-2.37,13.29,13.29,0,0,1,2.49-1.63,11.22,11.22,0,0,1,2.59-.94A12.06,12.06,0,0,1,202.38,0a10.34,10.34,0,0,1,3.28.48,8.16,8.16,0,0,1,2.44,1.28,5.63,5.63,0,0,1,1.52,1.78,4.26,4.26,0,0,1,.53,2A3.8,3.8,0,0,1,209.89,7a3,3,0,0,1-.7,1.05,3.07,3.07,0,0,1-1,.66,3.52,3.52,0,0,1-1.26.23A4.57,4.57,0,0,1,205,8.51L205,8.3a12.55,12.55,0,0,0,.54-1.46,4.69,4.69,0,0,0,.18-1.3A3.12,3.12,0,0,0,205.32,4a3.26,3.26,0,0,0-1-1.08,4.22,4.22,0,0,0-1.33-.6,5.7,5.7,0,0,0-1.46-.2,6.48,6.48,0,0,0-3.61,1,7.67,7.67,0,0,0-2.46,2.62,14.92,14.92,0,0,0-1.55,3.92,35.48,35.48,0,0,0-.86,4.86q-.3,2.61-.42,5.46C192.57,21.81,192.5,23.7,192.44,25.59Z"/><path class="cls-1" d="M221.76,13.88a6.07,6.07,0,0,0-.13-1.37A1.87,1.87,0,0,0,220.24,11a5.77,5.77,0,0,0-1.51-.17,23.29,23.29,0,0,0-3.21.29l-.19-1.7,3.77-.66c1.35-.23,2.75-.44,4.19-.63s2.89-.35,4.35-.47,2.86-.18,4.21-.18a31.75,31.75,0,0,1,3.26.17,21.17,21.17,0,0,1,3,.56,12.56,12.56,0,0,1,2.63,1.05,7.74,7.74,0,0,1,2.07,1.63,7,7,0,0,1,1.37,2.3,8.59,8.59,0,0,1,.5,3,10.27,10.27,0,0,1-.89,4.37A10.64,10.64,0,0,1,241.43,24,14.17,14.17,0,0,1,238,26.35a22.26,22.26,0,0,1-4.14,1.53v.17a24.18,24.18,0,0,1,5.28.95,13,13,0,0,1,4.19,2.12,9.61,9.61,0,0,1,2.77,3.39,10.6,10.6,0,0,1,1,4.78,12.84,12.84,0,0,1-.64,4.19A11.11,11.11,0,0,1,242,49.26a16,16,0,0,1-3.32,1.7,19.85,19.85,0,0,1-3.77,1,26.5,26.5,0,0,1-7.21.12c-1-.12-2.11-.28-3.26-.47l-3.7.44-.34,0q.24-2.52.45-5.43t.34-6.09c.1-2.12.18-4.3.26-6.54s.13-4.48.18-6.75.07-4.51.09-6.76S221.76,16,221.76,13.88Zm3.09,35.46a19.43,19.43,0,0,0,2.72.5c.87.08,1.73.13,2.61.13a16.07,16.07,0,0,0,4.42-.58,9.75,9.75,0,0,0,3.57-1.83,8.59,8.59,0,0,0,2.38-3.2,11.42,11.42,0,0,0,.87-4.67,10.64,10.64,0,0,0-.88-4.45A8.25,8.25,0,0,0,238,32.05a11.33,11.33,0,0,0-4.11-1.91,21.73,21.73,0,0,0-5.56-.64l-1.24,0c-.43,0-.86,0-1.29.06,0,.78-.06,1.68-.09,2.72s-.09,2.14-.14,3.32-.1,2.4-.16,3.66-.12,2.48-.18,3.69-.13,2.35-.19,3.45S224.91,48.49,224.85,49.34ZM226.28,10c0,.82,0,1.83-.06,3s-.06,2.54-.1,4-.07,3.12-.12,4.87-.09,3.6-.14,5.54a27.55,27.55,0,0,0,3.28-.28,19.06,19.06,0,0,0,3.11-.71A12.56,12.56,0,0,0,235,25.24a8.88,8.88,0,0,0,2.18-1.86,8,8,0,0,0,1.45-2.54,9.76,9.76,0,0,0,.52-3.32,8.65,8.65,0,0,0-.7-3.69,6.22,6.22,0,0,0-1.94-2.42,7.88,7.88,0,0,0-2.87-1.32,15.33,15.33,0,0,0-3.53-.4c-.61,0-1.24,0-1.88.08S226.92,9.9,226.28,10Z"/><path class="cls-1" d="M250.69,40.77a19.42,19.42,0,0,1,.4-3.9A20.54,20.54,0,0,1,252.27,33a18.81,18.81,0,0,1,1.93-3.49,14.39,14.39,0,0,1,2.66-2.84,12.22,12.22,0,0,1,3.35-1.92,11.17,11.17,0,0,1,4-.71,8.78,8.78,0,0,1,4.31,1,9.79,9.79,0,0,1,3.15,2.71,12.08,12.08,0,0,1,1.94,3.84,14.89,14.89,0,0,1,.65,4.4,19.42,19.42,0,0,1-.4,3.9,19.18,19.18,0,0,1-1.19,3.84,17.92,17.92,0,0,1-1.94,3.48,14.12,14.12,0,0,1-2.65,2.85A12,12,0,0,1,264.74,52a11.16,11.16,0,0,1-4,.71,8.79,8.79,0,0,1-4.32-1A9.65,9.65,0,0,1,253.27,49a12.36,12.36,0,0,1-1.92-3.84A14.89,14.89,0,0,1,250.69,40.77ZM255.24,39a18.12,18.12,0,0,0,.2,2.63,14.39,14.39,0,0,0,.62,2.57,12.78,12.78,0,0,0,1,2.31,8.08,8.08,0,0,0,1.46,1.88,6.74,6.74,0,0,0,1.91,1.26,5.87,5.87,0,0,0,2.33.45,4.89,4.89,0,0,0,2.45-.6,6.29,6.29,0,0,0,1.83-1.59,9,9,0,0,0,1.27-2.26,16.81,16.81,0,0,0,.81-2.64,21.47,21.47,0,0,0,.43-2.69q.12-1.34.12-2.46a16.76,16.76,0,0,0-.2-2.64,15.29,15.29,0,0,0-.61-2.55,13,13,0,0,0-1-2.3,8.06,8.06,0,0,0-1.47-1.87,6.66,6.66,0,0,0-1.9-1.25,6,6,0,0,0-2.34-.45,4.85,4.85,0,0,0-2.44.59,5.88,5.88,0,0,0-1.83,1.58,9,9,0,0,0-1.28,2.26,19.53,19.53,0,0,0-.81,2.63,23.13,23.13,0,0,0-.43,2.69C255.28,37.41,255.24,38.23,255.24,39Z"/><path class="cls-1" d="M278.4,40.77a19.42,19.42,0,0,1,.4-3.9A19.83,19.83,0,0,1,280,33a18.25,18.25,0,0,1,1.93-3.49,14.1,14.1,0,0,1,2.66-2.84,12.22,12.22,0,0,1,3.35-1.92,11.17,11.17,0,0,1,4-.71,8.78,8.78,0,0,1,4.31,1,9.79,9.79,0,0,1,3.15,2.71,12.29,12.29,0,0,1,1.94,3.84,15.22,15.22,0,0,1,.65,4.4,19.42,19.42,0,0,1-.4,3.9,19.18,19.18,0,0,1-1.19,3.84,18.46,18.46,0,0,1-1.94,3.48,13.89,13.89,0,0,1-2.66,2.85A12,12,0,0,1,292.45,52a11.17,11.17,0,0,1-4,.71,8.78,8.78,0,0,1-4.31-1A9.65,9.65,0,0,1,281,49a12.38,12.38,0,0,1-1.93-3.84A15.22,15.22,0,0,1,278.4,40.77ZM283,39a18.12,18.12,0,0,0,.2,2.63,14.39,14.39,0,0,0,.62,2.57,12.12,12.12,0,0,0,1,2.31,8.08,8.08,0,0,0,1.46,1.88,6.74,6.74,0,0,0,1.91,1.26,5.87,5.87,0,0,0,2.33.45,4.89,4.89,0,0,0,2.45-.6,6.13,6.13,0,0,0,1.82-1.59,9,9,0,0,0,1.28-2.26,16.81,16.81,0,0,0,.81-2.64,23.47,23.47,0,0,0,.43-2.69q.12-1.34.12-2.46a18,18,0,0,0-.2-2.64,14.38,14.38,0,0,0-.62-2.55,12.32,12.32,0,0,0-1-2.3,8,8,0,0,0-1.46-1.87,6.71,6.71,0,0,0-1.91-1.25,5.87,5.87,0,0,0-2.33-.45,4.88,4.88,0,0,0-2.45.59,6,6,0,0,0-1.82,1.58,9,9,0,0,0-1.28,2.26,17,17,0,0,0-.81,2.63,21.18,21.18,0,0,0-.43,2.69C283,37.41,283,38.23,283,39Z"/><path class="cls-1" d="M316.9,39.46a28.72,28.72,0,0,0,4.17-1.74,18.76,18.76,0,0,0,3.25-2.07,9.15,9.15,0,0,0,2.1-2.32,4.74,4.74,0,0,0,.75-2.5,2.45,2.45,0,0,0-.2-1,2.33,2.33,0,0,0-.54-.76,2.4,2.4,0,0,0-.78-.49,2.77,2.77,0,0,0-1-.17,5,5,0,0,0-2.48.74,10.93,10.93,0,0,0-2.56,2.16,21.52,21.52,0,0,0-2.46,3.44A33.89,33.89,0,0,0,315,39.4a50.06,50.06,0,0,0-1.85,5.69,58.5,58.5,0,0,0-1.31,6.63l-3.85.5-.3,0c.07-1.5.16-3.16.25-5s.2-3.73.31-5.76.22-4.15.34-6.35.24-4.45.36-6.74.25-4.59.38-6.91.25-4.62.37-6.88.23-4.49.35-6.66.22-4.25.32-6.23a1.44,1.44,0,0,1,.27-.79,1.75,1.75,0,0,1,.64-.53,3.25,3.25,0,0,1,.88-.29,5,5,0,0,1,1-.1,5.47,5.47,0,0,1,2.4.61q-.44,3.9-.78,7.16t-.62,6.05c-.18,1.86-.35,3.6-.5,5.21s-.29,3.17-.41,4.65-.24,2.93-.35,4.34-.21,2.86-.31,4.31-.21,3-.31,4.54-.23,3.23-.36,5l.12,0a44.33,44.33,0,0,1,3.67-8.67,32.07,32.07,0,0,1,2.42-3.68,19.47,19.47,0,0,1,2.71-2.9,12.25,12.25,0,0,1,2.91-1.91,7.11,7.11,0,0,1,3.05-.7,5,5,0,0,1,1.79.32,4.13,4.13,0,0,1,1.41.89,4,4,0,0,1,.94,1.4,4.89,4.89,0,0,1,.33,1.83,7.33,7.33,0,0,1-.68,3.06,11.18,11.18,0,0,1-1.95,2.86,17.44,17.44,0,0,1-3,2.6,28.51,28.51,0,0,1-3.91,2.28q1.28,2.34,2.3,4c.67,1.12,1.29,2.05,1.84,2.8a15.07,15.07,0,0,0,1.5,1.8,6.37,6.37,0,0,0,1.23,1,3.32,3.32,0,0,0,1.05.45,4.77,4.77,0,0,0,1,.11,7.63,7.63,0,0,0,2.06-.31,14.84,14.84,0,0,0,2.15-.8l.36,1a11.06,11.06,0,0,1-1.73,1.12,22.74,22.74,0,0,1-2.22,1,16.58,16.58,0,0,1-2.32.77,8.23,8.23,0,0,1-2,.3,3.46,3.46,0,0,1-2.05-.75,11.23,11.23,0,0,1-2.19-2.34,43.28,43.28,0,0,1-2.58-4c-.94-1.61-2-3.55-3.23-5.79Z"/><path class="cls-1" d="M339.37,44.85a5.84,5.84,0,0,0,.77,2.49,5.65,5.65,0,0,0,1.58,1.71,6.44,6.44,0,0,0,2.06,1,8.08,8.08,0,0,0,2.26.33,7.15,7.15,0,0,0,2-.29,5.53,5.53,0,0,0,1.71-.82A4,4,0,0,0,351,48a3.43,3.43,0,0,0,.45-1.75,3.26,3.26,0,0,0-.48-1.77A5.51,5.51,0,0,0,349.66,43a11.13,11.13,0,0,0-1.86-1.16l-2.2-1.09-2-1c-.68-.33-1.33-.68-2-1.06a15.22,15.22,0,0,1-1.78-1.24,8.76,8.76,0,0,1-1.45-1.47,6.69,6.69,0,0,1-1-1.81,6.8,6.8,0,0,1-.35-2.22,6.17,6.17,0,0,1,.46-2.42,7.08,7.08,0,0,1,1.24-2,8.84,8.84,0,0,1,1.83-1.55A11.51,11.51,0,0,1,342.8,25a13.89,13.89,0,0,1,4.86-.89,12.22,12.22,0,0,1,2.88.33,8.14,8.14,0,0,1,2.38,1,5.12,5.12,0,0,1,1.62,1.55,3.65,3.65,0,0,1,.6,2.05,3.46,3.46,0,0,1-.15,1,2.66,2.66,0,0,1-.52,1,2.78,2.78,0,0,1-1,.75,3.27,3.27,0,0,1-1.45.32,6.29,6.29,0,0,1-1.67-.24l-.06-.19a5.77,5.77,0,0,0,.38-1.13,4.19,4.19,0,0,0,.12-.95,2.7,2.7,0,0,0-.45-1.48,3.51,3.51,0,0,0-1.08-1,5.12,5.12,0,0,0-1.43-.55,7.68,7.68,0,0,0-1.56-.17,7.49,7.49,0,0,0-2.41.36,5.49,5.49,0,0,0-1.8,1A4.37,4.37,0,0,0,341,29a3.45,3.45,0,0,0-.39,1.58,3.37,3.37,0,0,0,.55,1.88,6.38,6.38,0,0,0,1.47,1.52,14,14,0,0,0,2.1,1.31c.8.41,1.63.81,2.49,1.22s1.92.93,2.88,1.42a14.18,14.18,0,0,1,2.55,1.66,8,8,0,0,1,1.82,2.14,5.67,5.67,0,0,1,.69,2.85,6.93,6.93,0,0,1-.87,3.49A8,8,0,0,1,352,50.6a10.53,10.53,0,0,1-3.32,1.59,14,14,0,0,1-3.9.54,15.09,15.09,0,0,1-2.08-.15,14.39,14.39,0,0,1-2.09-.46,11.85,11.85,0,0,1-1.91-.75,7.56,7.56,0,0,1-1.58-1A4.67,4.67,0,0,1,336,49a3.18,3.18,0,0,1-.39-1.57,2.34,2.34,0,0,1,.32-1.25,2.63,2.63,0,0,1,.82-.84,4,4,0,0,1,1.16-.49,7,7,0,0,1,1.3-.18Z"/></g></g></svg>