<svg xmlns="http://www.w3.org/2000/svg" xmlns:xlink="http://www.w3.org/1999/xlink" viewBox="0 0 400.15 210.15"><defs><style>.cls-1{fill:url(#radial-gradient);}.cls-2,.cls-7{fill:#fff;}.cls-3{fill:url(#radial-gradient-2);}.cls-4{fill:url(#radial-gradient-3);}.cls-5{fill:url(#radial-gradient-4);}.cls-6{fill:none;stroke-linecap:round;stroke-linejoin:round;stroke-width:4px;}.cls-6,.cls-7{stroke:#fff;}.cls-7{stroke-miterlimit:10;stroke-width:2px;}</style><radialGradient id="radial-gradient" cx="259.66" cy="43.87" fx="278.57793641743575" fy="28.931061813465263" r="24.11" gradientTransform="translate(0.67 0.32)" gradientUnits="userSpaceOnUse"><stop offset="0.15" stop-color="#00a5d5"/><stop offset="1" stop-color="#3a4a9e"/></radialGradient><radialGradient id="radial-gradient-2" cx="136.74" cy="23.22" fx="136.74384691992327" fy="23.221993914782615" r="40.78" gradientTransform="matrix(1, 0, 0, 1, 0, 0)" xlink:href="#radial-gradient"/><radialGradient id="radial-gradient-3" cx="220.83" cy="17.71" fx="220.8291227468917" fy="17.71088707367562" r="92.34" gradientTransform="translate(0.45 0.31)" xlink:href="#radial-gradient"/><radialGradient id="radial-gradient-4" cx="200.55" cy="129.2" fx="200.54714808815243" fy="129.19636690531115" r="291.1" gradientTransform="matrix(1, 0, 0, 1, 0, 0)" xlink:href="#radial-gradient"/></defs><title>logobold</title><g id="Layer_2" data-name="Layer 2"><g id="Layer_1-2" data-name="Layer 1"><circle class="cls-1" cx="259.18" cy="44" r="24"/><path class="cls-2" d="M269.09,34.73a18.74,18.74,0,0,1,1.63,23.79,18.73,18.73,0,1,0-23-29.39,19,19,0,0,0-2.34,2.69A18.72,18.72,0,0,1,269.09,34.73Z"/><circle class="cls-3" cx="146.18" cy="41" r="24"/><path class="cls-2" d="M135.53,34a18.73,18.73,0,0,1,22.85-6.83,18.94,18.94,0,0,0-2.76-2.25A18.73,18.73,0,0,0,134.77,56a18.31,18.31,0,0,0,3.13,1.69A18.71,18.71,0,0,1,135.53,34Z"/><circle class="cls-4" cx="201.18" cy="44" r="44"/><path class="cls-2" d="M201.23,19.8a34.28,34.28,0,0,1,33.65,27.79,34.66,34.66,0,0,0,.62-6.49,34.28,34.28,0,0,0-68.55,0,33.85,33.85,0,0,0,.63,6.49A34.27,34.27,0,0,1,201.23,19.8Z"/><path class="cls-2" d="M15.18,113.77l7.24-14.48,80.89-22.94s51.3-20.52,89.94,32l7.76,4.91.43,18.63L175.63,118H15.18Z"/><path class="cls-2" d="M386.18,112.72l-7.25-14.49L298.05,75.3s-51.31-20.53-90,32l-8.49,6.59.43,18.63L226.59,118l159.59-1Z"/><path class="cls-5" d="M209.2,134l-16.34,0A23.67,23.67,0,0,1,173,120H4.67a4.62,4.62,0,0,1-4.58-3.57A4.51,4.51,0,0,1,4.5,111H176.21l4.42,3.49A14.67,14.67,0,0,0,193.46,125H209a14.69,14.69,0,0,0,12.85-10.55l4.4-3.45H395.48a4.61,4.61,0,0,1,4.58,3.57,4.51,4.51,0,0,1-4.41,5.43H229.43a23.69,23.69,0,0,1-19.84,14Z"/><path class="cls-6" d="M44.88,86l25-4.28c4.7-.84,9.37-1.89,14-3.16L108,71.65a73.82,73.82,0,0,1,21.63-3.4c8.21-.06,18.64.43,25.17,2.82,8.72,3.2,23.14,6.49,45.36,41.38V117"/><path class="cls-6" d="M355.47,86l-25-4.28c-4.7-.84-9.37-1.89-14-3.16l-24.15-6.92a73.82,73.82,0,0,0-21.63-3.4c-8.21-.06-18.64.43-25.17,2.82-8.72,3.2-23.13,6.49-45.35,41.38V117"/><path class="cls-6" d="M355.21,78.4c-1.69,0-3,3-68.59-14.14s-86.7,44.57-86.7,44.57a54.78,54.78,0,0,1,2.25-8.07c12-34.21,48.61-53.19,83.64-43.84,23.45,6.27,60.51,15.14,69.4,11.32"/><path class="cls-6" d="M44.62,78.4c1.7,0,3,3,68.6-14.14s86.7,44.57,86.7,44.57a55.8,55.8,0,0,0-2.26-8.07c-12-34.21-48.61-53.19-83.64-43.84-23.45,6.27-60.5,15.14-69.4,11.32"/><path class="cls-7" d="M30.25,152.05a6,6,0,0,0-.14-1.37,2,2,0,0,0-.46-.93,2,2,0,0,0-.93-.53,5.25,5.25,0,0,0-1.5-.17,23.17,23.17,0,0,0-3.22.28l-.23-1.69c1.19-.22,2.5-.44,3.91-.67s2.87-.44,4.37-.63,3-.34,4.49-.46,3-.19,4.33-.19a25.49,25.49,0,0,1,5.15.5,11.92,11.92,0,0,1,4.21,1.68,8.54,8.54,0,0,1,2.85,3.19,10.68,10.68,0,0,1,1.05,5A15.77,15.77,0,0,1,53,162.31,13.11,13.11,0,0,1,49.67,167,14.32,14.32,0,0,1,44.6,170a20,20,0,0,1-6.55,1,2,2,0,0,1-1.12-.24c-.22-.17-.32-.52-.32-1.07v-.25a1.06,1.06,0,0,1,0-.28,17.71,17.71,0,0,0,4.8-.58A11.38,11.38,0,0,0,44.81,167,8.14,8.14,0,0,0,47,164.8a10.49,10.49,0,0,0,1.26-2.53,12.22,12.22,0,0,0,.57-2.58,22.2,22.2,0,0,0,.14-2.3,11.81,11.81,0,0,0-.78-4.6,7.4,7.4,0,0,0-2.09-2.93,7.85,7.85,0,0,0-3.1-1.53,15.22,15.22,0,0,0-3.77-.45c-.67,0-1.31,0-1.93.08s-1.28.12-2,.21c0,1-.06,2.29-.1,3.92s-.1,3.52-.15,5.65-.13,4.45-.2,7-.16,5.18-.23,7.94-.16,5.6-.25,8.51-.18,5.82-.27,8.71l-4.51.57-.34,0q.23-5.48.42-10.36c.12-3.27.23-6.44.31-9.53s.15-6.16.2-9.18S30.25,155.23,30.25,152.05Z"/><path class="cls-7" d="M72.92,184l.3.16a2.75,2.75,0,0,1,.33.23,1.72,1.72,0,0,1,.27.27.45.45,0,0,1,.11.27.29.29,0,0,1-.06.16,15.6,15.6,0,0,1-2.29,2.58A13.76,13.76,0,0,1,69,189.48a11.67,11.67,0,0,1-2.7,1.09,11,11,0,0,1-2.7.35,9.4,9.4,0,0,1-4.19-.93,10.06,10.06,0,0,1-3.28-2.55,12.25,12.25,0,0,1-2.14-3.8,14.05,14.05,0,0,1-.77-4.68,18.8,18.8,0,0,1,.45-4.07A19.51,19.51,0,0,1,55,171a18.7,18.7,0,0,1,2.07-3.44,14.2,14.2,0,0,1,2.77-2.76A12.59,12.59,0,0,1,63.24,163a11.61,11.61,0,0,1,4-.67,9.43,9.43,0,0,1,2.68.38,7,7,0,0,1,2.24,1.1,5.29,5.29,0,0,1,1.53,1.76,4.9,4.9,0,0,1,.57,2.38A5,5,0,0,1,73,171.31a10.14,10.14,0,0,1-3.5,2.45,24.17,24.17,0,0,1-5.24,1.63,59.63,59.63,0,0,1-6.53.93v.32a15.19,15.19,0,0,0,.62,4.45,11.08,11.08,0,0,0,1.71,3.46,7.85,7.85,0,0,0,2.55,2.24,6.54,6.54,0,0,0,3.16.8,8.11,8.11,0,0,0,3.51-.85A12.71,12.71,0,0,0,72.92,184ZM69.34,168.7a4.63,4.63,0,0,0-.29-1.64,4,4,0,0,0-.82-1.32,3.78,3.78,0,0,0-2.81-1.21,5.44,5.44,0,0,0-2.25.44,6.18,6.18,0,0,0-1.81,1.19A8.45,8.45,0,0,0,60,167.91a13.45,13.45,0,0,0-1,2.12,18.43,18.43,0,0,0-.69,2.3,19.83,19.83,0,0,0-.38,2.31,34.94,34.94,0,0,0,4.85-.66,15.56,15.56,0,0,0,3.61-1.2A6.27,6.27,0,0,0,68.56,171,3.74,3.74,0,0,0,69.34,168.7Z"/><path class="cls-7" d="M93.56,170.32a6.3,6.3,0,0,0-.49-2.61,5.1,5.1,0,0,0-1.3-1.81A5.21,5.21,0,0,0,90,164.85a6.15,6.15,0,0,0-2-.34,7.91,7.91,0,0,0-2.29.28,4.14,4.14,0,0,0-1.51.79,2.83,2.83,0,0,0-.84,1.17,4.06,4.06,0,0,0-.26,1.45,5.24,5.24,0,0,0,.34,1.84,6.63,6.63,0,0,0,1,1.8l-.08.21a4.84,4.84,0,0,1-2.19.53,3.42,3.42,0,0,1-1.21-.2,2.64,2.64,0,0,1-1-.58,2.73,2.73,0,0,1-.65-.93,3.08,3.08,0,0,1-.24-1.24,4.23,4.23,0,0,1,.55-2.11A7,7,0,0,1,81,165.71a10.45,10.45,0,0,1,2.08-1.47,17.14,17.14,0,0,1,2.44-1.09,16.88,16.88,0,0,1,2.52-.69,12.66,12.66,0,0,1,2.35-.24,9.63,9.63,0,0,1,3.42.54,5.42,5.42,0,0,1,2.3,1.55,6.18,6.18,0,0,1,1.3,2.46,12.21,12.21,0,0,1,.41,3.28c0,.84,0,1.76-.11,2.76s-.14,2.06-.23,3.15-.17,2.23-.24,3.4-.11,2.33-.11,3.49a6.91,6.91,0,0,0,1,4.12,3.17,3.17,0,0,0,2.68,1.38,6.42,6.42,0,0,0,3.27-1.09l.56.82a9.37,9.37,0,0,1-2.78,1.95,7.83,7.83,0,0,1-3.17.66,6.08,6.08,0,0,1-2.28-.42A4.92,4.92,0,0,1,94.63,189a5.74,5.74,0,0,1-1.18-2.09A9.2,9.2,0,0,1,93,184q0-.5,0-1t.12-1h-.11a29,29,0,0,1-1.9,3.23,17.29,17.29,0,0,1-2.36,2.83,11.53,11.53,0,0,1-2.74,2,6.38,6.38,0,0,1-3.06.77,6.25,6.25,0,0,1-2.4-.45,5.62,5.62,0,0,1-1.85-1.26,5.45,5.45,0,0,1-1.2-1.89,6.43,6.43,0,0,1-.43-2.39,7.36,7.36,0,0,1,.62-3,8.25,8.25,0,0,1,1.71-2.46,10.67,10.67,0,0,1,2.62-1.87,18.43,18.43,0,0,1,3.31-1.32,24.68,24.68,0,0,1,3.79-.78,32.39,32.39,0,0,1,4.08-.25c.09-.8.16-1.58.22-2.33S93.56,171.22,93.56,170.32ZM81.87,183.4a6.57,6.57,0,0,0,.16,1.42,3.47,3.47,0,0,0,.52,1.19,2.56,2.56,0,0,0,.89.81,2.79,2.79,0,0,0,1.31.29,4.35,4.35,0,0,0,1.77-.4,7.85,7.85,0,0,0,1.8-1.1A11.24,11.24,0,0,0,90,183.92a14.14,14.14,0,0,0,1.46-2.14,13.77,13.77,0,0,0,1.07-2.45,11.75,11.75,0,0,0,.57-2.63c-.94,0-1.88.08-2.8.18a19.12,19.12,0,0,0-2.64.44,13.07,13.07,0,0,0-2.31.8,6.73,6.73,0,0,0-1.84,1.23,5.25,5.25,0,0,0-1.21,1.73A5.78,5.78,0,0,0,81.87,183.4Z"/><path class="cls-7" d="M108.42,190.39l-.31,0c.1-1.21.2-2.52.29-3.94s.17-2.87.25-4.34.14-2.92.2-4.36.1-2.78.15-4,.07-2.37.09-3.36,0-1.78,0-2.35a10.8,10.8,0,0,0-.06-1.22,2.08,2.08,0,0,0-.25-.85,1.25,1.25,0,0,0-.58-.51,2.89,2.89,0,0,0-1-.16,5.12,5.12,0,0,0-.67,0c-.23,0-.48.06-.76.11l-.94.2-1.21.3-.29-1.37a50,50,0,0,1,5.13-1.61,14.42,14.42,0,0,1,2.64-.47,2.11,2.11,0,0,1,1.8.73,3.68,3.68,0,0,1,.54,2.19q0,.12,0,.78c0,.43-.06,1-.11,1.68s-.1,1.5-.16,2.41-.14,1.89-.22,2.94-.17,2.14-.28,3.28-.2,2.27-.32,3.4l.19,0a70.21,70.21,0,0,1,2.07-7,30.61,30.61,0,0,1,2.59-5.61,13.59,13.59,0,0,1,3.16-3.74,6,6,0,0,1,3.78-1.37,4,4,0,0,1,1.35.23,3.37,3.37,0,0,1,1.09.64,3.15,3.15,0,0,1,.72,1,2.84,2.84,0,0,1,.27,1.23,4,4,0,0,1-.37,1.65,3.87,3.87,0,0,1-1.18,1.4h-.15a5.7,5.7,0,0,0-1.51-1,3.89,3.89,0,0,0-1.52-.3,4.44,4.44,0,0,0-1.65.32,4.9,4.9,0,0,0-1.47.94,10.7,10.7,0,0,0-2,2.62,26.17,26.17,0,0,0-1.7,3.6,43.35,43.35,0,0,0-1.39,4.17c-.42,1.45-.77,2.86-1.07,4.24s-.54,2.67-.72,3.89-.32,2.23-.39,3Z"/><path class="cls-7" d="M137.86,138.78q-.39,3.24-.75,6.64c-.25,2.26-.49,4.56-.71,6.87s-.43,4.65-.62,7-.35,4.64-.49,6.9-.25,4.5-.33,6.68-.11,4.28-.11,6.28c0,1.26,0,2.34.05,3.24s.08,1.66.15,2.29a8.24,8.24,0,0,0,.28,1.5,2.49,2.49,0,0,0,.45.88,1.36,1.36,0,0,0,.63.41,3.13,3.13,0,0,0,.86.1,7.6,7.6,0,0,0,2-.28,12.85,12.85,0,0,0,2.14-.77l.36,1a11.4,11.4,0,0,1-1.72,1.13,20.85,20.85,0,0,1-2.18,1,18.14,18.14,0,0,1-2.24.78,7.71,7.71,0,0,1-1.89.29,2.38,2.38,0,0,1-1.63-.52,3.37,3.37,0,0,1-.92-1.71,15,15,0,0,1-.4-3.07c0-1.27-.08-2.8-.08-4.62,0-.66,0-1.6.06-2.83s.09-2.65.16-4.27.15-3.41.24-5.34.18-3.92.28-6,.21-4.14.32-6.24.23-4.13.35-6.1.22-3.81.32-5.55.2-3.27.29-4.6a1.38,1.38,0,0,1,.26-.79,1.87,1.87,0,0,1,.64-.54,3.25,3.25,0,0,1,.88-.29,4.59,4.59,0,0,1,1-.1A5.61,5.61,0,0,1,137.86,138.78Z"/><path class="cls-7" d="M146.45,183a5.7,5.7,0,0,0,.77,2.49,5.77,5.77,0,0,0,1.57,1.72,6.89,6.89,0,0,0,2.06,1,8.45,8.45,0,0,0,2.26.32,6.81,6.81,0,0,0,2-.29,5.64,5.64,0,0,0,1.71-.81,4.05,4.05,0,0,0,1.19-1.32,3.43,3.43,0,0,0,.45-1.75,3.34,3.34,0,0,0-.47-1.77,5.56,5.56,0,0,0-1.28-1.39,10.37,10.37,0,0,0-1.86-1.16c-.7-.36-1.44-.72-2.2-1.09l-2-1c-.68-.32-1.34-.68-2-1.06a17.52,17.52,0,0,1-1.78-1.23,8.74,8.74,0,0,1-1.44-1.48,6.18,6.18,0,0,1-1-1.81,6.54,6.54,0,0,1-.36-2.22,6.4,6.4,0,0,1,.46-2.42,6.89,6.89,0,0,1,1.25-2,8.63,8.63,0,0,1,1.83-1.55,12.35,12.35,0,0,1,2.21-1.11,13.67,13.67,0,0,1,2.43-.67,14.63,14.63,0,0,1,2.43-.22,11.74,11.74,0,0,1,2.89.34,7.81,7.81,0,0,1,2.37,1,5.12,5.12,0,0,1,1.62,1.55,3.66,3.66,0,0,1,.6,2.06,3.45,3.45,0,0,1-.15,1,2.79,2.79,0,0,1-.51,1,2.88,2.88,0,0,1-1,.75,3.48,3.48,0,0,1-1.45.33,6.39,6.39,0,0,1-1.68-.25l-.06-.19a6.35,6.35,0,0,0,.39-1.13,4.78,4.78,0,0,0,.11-1,2.51,2.51,0,0,0-.45-1.47,3.5,3.5,0,0,0-1.07-1,5.19,5.19,0,0,0-1.44-.55,7.66,7.66,0,0,0-1.55-.17,7.55,7.55,0,0,0-2.42.36,5.91,5.91,0,0,0-1.8,1,4.26,4.26,0,0,0-1.12,1.37,3.36,3.36,0,0,0,.16,3.45,6.55,6.55,0,0,0,1.46,1.53,14.4,14.4,0,0,0,2.11,1.3c.79.41,1.62.81,2.48,1.22s1.93.93,2.88,1.42a14.18,14.18,0,0,1,2.55,1.66,7.9,7.9,0,0,1,1.82,2.15,5.61,5.61,0,0,1,.69,2.84,7,7,0,0,1-.86,3.49,8.13,8.13,0,0,1-2.32,2.57,10.53,10.53,0,0,1-3.32,1.59,14,14,0,0,1-3.89.54,15.12,15.12,0,0,1-2.09-.15,12.82,12.82,0,0,1-2.08-.46,11.61,11.61,0,0,1-1.92-.75,7.56,7.56,0,0,1-1.58-1,4.81,4.81,0,0,1-1.07-1.29,3.23,3.23,0,0,1-.39-1.57,2.36,2.36,0,0,1,.32-1.26,2.56,2.56,0,0,1,.83-.84,3.82,3.82,0,0,1,1.15-.48,6.27,6.27,0,0,1,1.3-.19Z"/><path class="cls-7" d="M179.68,178.94a19.42,19.42,0,0,1,.4-3.9,19.83,19.83,0,0,1,1.18-3.84,17.87,17.87,0,0,1,1.93-3.48,13.89,13.89,0,0,1,2.66-2.85A12.22,12.22,0,0,1,189.2,163a11.17,11.17,0,0,1,4-.71,8.78,8.78,0,0,1,4.31,1,9.92,9.92,0,0,1,3.15,2.71,12.17,12.17,0,0,1,1.93,3.84,14.94,14.94,0,0,1,.66,4.4,19.42,19.42,0,0,1-.4,3.9,19.85,19.85,0,0,1-1.19,3.84,18.86,18.86,0,0,1-1.94,3.49,14.39,14.39,0,0,1-2.66,2.84,12,12,0,0,1-3.35,1.93,11.17,11.17,0,0,1-4,.7,8.78,8.78,0,0,1-4.31-1,9.65,9.65,0,0,1-3.14-2.71,12.16,12.16,0,0,1-1.93-3.84A14.89,14.89,0,0,1,179.68,178.94Zm4.55-1.81a16.82,16.82,0,0,0,.2,2.63,14.39,14.39,0,0,0,.62,2.57,13.17,13.17,0,0,0,1,2.32,8.56,8.56,0,0,0,1.47,1.87,6.62,6.62,0,0,0,1.9,1.26,6,6,0,0,0,2.34.46,4.85,4.85,0,0,0,2.44-.6,6,6,0,0,0,1.83-1.59,9.09,9.09,0,0,0,1.28-2.27,19.23,19.23,0,0,0,.81-2.64,23.13,23.13,0,0,0,.43-2.69q.12-1.33.12-2.46a18.26,18.26,0,0,0-.2-2.64,14.38,14.38,0,0,0-.62-2.55,12.62,12.62,0,0,0-1-2.3,8,8,0,0,0-1.46-1.87,6.93,6.93,0,0,0-1.91-1.25,5.87,5.87,0,0,0-2.33-.45,4.88,4.88,0,0,0-2.45.59,6.11,6.11,0,0,0-1.83,1.58,9.32,9.32,0,0,0-1.27,2.26,17,17,0,0,0-.81,2.63,21,21,0,0,0-.43,2.7C184.27,175.58,184.23,176.4,184.23,177.13Z"/><path class="cls-7" d="M215.88,163.77l1.83,0,1.66,0,1.39,0h1.06q.87,0,1.65-.06c.53,0,1-.07,1.34-.11a4.34,4.34,0,0,1,.21,1.14,1.07,1.07,0,0,1-.7,1.11,6.07,6.07,0,0,1-2,.26c-.87,0-1.85-.05-2.93-.14s-2.27-.19-3.56-.28c0,1.51-.11,3.16-.19,4.94s-.18,3.61-.3,5.52-.27,3.83-.44,5.8-.4,3.87-.66,5.74-.57,3.64-.92,5.34a41.42,41.42,0,0,1-1.24,4.62,25.56,25.56,0,0,1-2.53,5.43,15.22,15.22,0,0,1-3,3.51,10,10,0,0,1-3.3,1.88,10.79,10.79,0,0,1-6.11.24A8.19,8.19,0,0,1,195,208a4.78,4.78,0,0,1-1.44-1.29,2.63,2.63,0,0,1-.52-1.55,2.12,2.12,0,0,1,.21-.91,2.6,2.6,0,0,1,.58-.79,3.1,3.1,0,0,1,.87-.56,2.84,2.84,0,0,1,1.1-.22,8.25,8.25,0,0,0,1.22,1.69,6.84,6.84,0,0,0,1.42,1.14,6.17,6.17,0,0,0,1.58.66,6.69,6.69,0,0,0,1.66.21,5.3,5.3,0,0,0,3.72-1.42,11,11,0,0,0,2.58-4,29.64,29.64,0,0,0,1.62-6.27q.6-3.68.91-8.18t.42-9.73c.07-3.49.11-7.14.14-11-1.19,0-2.3.05-3.31.13a9.43,9.43,0,0,0-2.56.5.94.94,0,0,1-.07-.37,1.1,1.1,0,0,1,.44-.84,4,4,0,0,1,1.22-.7,10,10,0,0,1,1.91-.49,19.24,19.24,0,0,1,2.47-.25c.05-1.2.11-2.34.19-3.42s.17-2.16.29-3.22.27-2.12.45-3.19.4-2.17.66-3.31a21,21,0,0,1,1.34-4,16.84,16.84,0,0,1,1.85-3.16,14.19,14.19,0,0,1,2.25-2.37,13.29,13.29,0,0,1,2.49-1.63,10.74,10.74,0,0,1,2.59-.93,11.47,11.47,0,0,1,2.57-.3,10.05,10.05,0,0,1,3.28.49,8.14,8.14,0,0,1,2.44,1.27,5.63,5.63,0,0,1,1.52,1.78,4.29,4.29,0,0,1,.53,2,3.76,3.76,0,0,1-.26,1.43,3,3,0,0,1-1.74,1.71,3.35,3.35,0,0,1-1.26.23,4.41,4.41,0,0,1-1.85-.44l-.07-.21A11.91,11.91,0,0,0,229,145a4.69,4.69,0,0,0,.18-1.3,3.12,3.12,0,0,0-.37-1.57,3.22,3.22,0,0,0-1-1.07,4,4,0,0,0-1.34-.61,5.55,5.55,0,0,0-1.45-.19,6.48,6.48,0,0,0-3.61.95,7.76,7.76,0,0,0-2.46,2.62,15.06,15.06,0,0,0-1.55,3.92,37.19,37.19,0,0,0-.87,4.87c-.19,1.74-.33,3.55-.41,5.45S215.94,161.87,215.88,163.77Z"/><path class="cls-7" d="M244.75,152.05a6,6,0,0,0-.14-1.37,2,2,0,0,0-.46-.93,2,2,0,0,0-.93-.53,5.25,5.25,0,0,0-1.5-.17,23.17,23.17,0,0,0-3.22.28l-.19-1.69c1.15-.22,2.41-.44,3.77-.67s2.76-.44,4.2-.63,2.89-.34,4.34-.46,2.86-.19,4.22-.19a29.27,29.27,0,0,1,3.26.18,18.79,18.79,0,0,1,3,.56,12.32,12.32,0,0,1,2.63,1,8.16,8.16,0,0,1,2.08,1.63,7.24,7.24,0,0,1,1.37,2.3,8.6,8.6,0,0,1,.49,3,10.27,10.27,0,0,1-.88,4.37,10.8,10.8,0,0,1-2.39,3.34,14.23,14.23,0,0,1-3.47,2.38,22.16,22.16,0,0,1-4.13,1.53v.17a24.19,24.19,0,0,1,5.27.95,12.91,12.91,0,0,1,4.19,2.12,9.51,9.51,0,0,1,2.77,3.39,10.6,10.6,0,0,1,1,4.78,13.08,13.08,0,0,1-.63,4.19,11.41,11.41,0,0,1-1.77,3.31,11.17,11.17,0,0,1-2.65,2.48,16,16,0,0,1-3.32,1.69,19.42,19.42,0,0,1-3.78,1,25.36,25.36,0,0,1-4,.32,27.43,27.43,0,0,1-3.21-.19c-1-.13-2.11-.29-3.27-.48l-3.69.44-.35,0q.26-2.52.45-5.43c.13-1.94.25-4,.34-6.09s.19-4.3.26-6.53.14-4.49.18-6.75.08-4.52.1-6.76S244.75,154.17,244.75,152.05Zm3.54,35.46a19.43,19.43,0,0,0,2.72.5,25.06,25.06,0,0,0,2.61.13,16.12,16.12,0,0,0,4.42-.58,9.75,9.75,0,0,0,3.57-1.83,8.59,8.59,0,0,0,2.38-3.2,11.42,11.42,0,0,0,.87-4.67,10.67,10.67,0,0,0-.88-4.45,8.25,8.25,0,0,0-2.54-3.19,11.33,11.33,0,0,0-4.11-1.91,21.79,21.79,0,0,0-5.56-.64l-1.24,0-1.29.06c0,.78-.06,1.68-.1,2.72s-.08,2.14-.13,3.32-.1,2.4-.16,3.66-.12,2.49-.18,3.69-.13,2.36-.19,3.45S248.35,186.66,248.29,187.51Zm1.43-39.34c0,.83,0,1.84-.06,3s-.06,2.54-.1,4-.08,3.12-.12,4.87-.09,3.6-.14,5.54a27.54,27.54,0,0,0,3.28-.27,19.07,19.07,0,0,0,3.11-.72,12.56,12.56,0,0,0,2.73-1.25,9.07,9.07,0,0,0,2.18-1.85,8.27,8.27,0,0,0,1.45-2.55,9.72,9.72,0,0,0,.52-3.32,8.65,8.65,0,0,0-.7-3.69,6.22,6.22,0,0,0-1.94-2.42,7.88,7.88,0,0,0-2.87-1.32,15.36,15.36,0,0,0-3.54-.39c-.6,0-1.23,0-1.87.07S250.36,148.07,249.72,148.17Z"/><path class="cls-7" d="M274.13,178.94a19.42,19.42,0,0,1,.4-3.9,20.54,20.54,0,0,1,1.18-3.84,17.87,17.87,0,0,1,1.93-3.48,14.17,14.17,0,0,1,2.66-2.85,12.22,12.22,0,0,1,3.35-1.92,11.17,11.17,0,0,1,4-.71,8.78,8.78,0,0,1,4.31,1,9.92,9.92,0,0,1,3.15,2.71,12.4,12.4,0,0,1,1.94,3.84,15.27,15.27,0,0,1,.65,4.4,19.42,19.42,0,0,1-.4,3.9,19.18,19.18,0,0,1-1.19,3.84,18.29,18.29,0,0,1-1.94,3.49,14.1,14.1,0,0,1-2.66,2.84,12,12,0,0,1-3.35,1.93,11.17,11.17,0,0,1-4,.7,8.78,8.78,0,0,1-4.31-1,9.65,9.65,0,0,1-3.14-2.71,12.14,12.14,0,0,1-1.92-3.84A14.89,14.89,0,0,1,274.13,178.94Zm4.55-1.81a18.12,18.12,0,0,0,.2,2.63,14.39,14.39,0,0,0,.62,2.57,12.5,12.5,0,0,0,1,2.32,8.23,8.23,0,0,0,1.46,1.87,6.54,6.54,0,0,0,1.91,1.26,5.87,5.87,0,0,0,2.33.46,4.89,4.89,0,0,0,2.45-.6,6.29,6.29,0,0,0,1.83-1.59,9.39,9.39,0,0,0,1.27-2.27,16.81,16.81,0,0,0,.81-2.64,21.18,21.18,0,0,0,.43-2.69q.12-1.33.12-2.46a17,17,0,0,0-.2-2.64,14.38,14.38,0,0,0-.62-2.55,12.58,12.58,0,0,0-1-2.3,8.33,8.33,0,0,0-1.47-1.87,7,7,0,0,0-1.9-1.25,6,6,0,0,0-2.34-.45,4.85,4.85,0,0,0-2.44.59,5.88,5.88,0,0,0-1.83,1.58,9,9,0,0,0-1.28,2.26,19.53,19.53,0,0,0-.81,2.63,23,23,0,0,0-.43,2.7C278.72,175.58,278.68,176.4,278.68,177.13Z"/><path class="cls-7" d="M301.84,178.94a19.42,19.42,0,0,1,.4-3.9,19.83,19.83,0,0,1,1.18-3.84,17.87,17.87,0,0,1,1.93-3.48,13.89,13.89,0,0,1,2.66-2.85,12.22,12.22,0,0,1,3.35-1.92,11.17,11.17,0,0,1,4-.71,8.78,8.78,0,0,1,4.31,1,9.92,9.92,0,0,1,3.15,2.71,12.17,12.17,0,0,1,1.93,3.84,14.94,14.94,0,0,1,.66,4.4,19.42,19.42,0,0,1-.4,3.9,19.85,19.85,0,0,1-1.19,3.84,18.86,18.86,0,0,1-1.94,3.49,14.39,14.39,0,0,1-2.66,2.84,12,12,0,0,1-3.35,1.93,11.17,11.17,0,0,1-4,.7,8.78,8.78,0,0,1-4.31-1,9.65,9.65,0,0,1-3.14-2.71,12.16,12.16,0,0,1-1.93-3.84A15.22,15.22,0,0,1,301.84,178.94Zm4.55-1.81a16.82,16.82,0,0,0,.2,2.63,14.39,14.39,0,0,0,.62,2.57,13.17,13.17,0,0,0,1,2.32,8.56,8.56,0,0,0,1.47,1.87,6.54,6.54,0,0,0,1.91,1.26,5.87,5.87,0,0,0,2.33.46,4.91,4.91,0,0,0,2.45-.6,6.13,6.13,0,0,0,1.82-1.59,9.09,9.09,0,0,0,1.28-2.27,16.81,16.81,0,0,0,.81-2.64,23.13,23.13,0,0,0,.43-2.69q.12-1.33.12-2.46a18.26,18.26,0,0,0-.2-2.64,14.38,14.38,0,0,0-.62-2.55,12.62,12.62,0,0,0-1-2.3,8,8,0,0,0-1.46-1.87,6.93,6.93,0,0,0-1.91-1.25,5.87,5.87,0,0,0-2.33-.45,4.88,4.88,0,0,0-2.45.59A6,6,0,0,0,309,167.1a9,9,0,0,0-1.28,2.26,17,17,0,0,0-.81,2.63,21,21,0,0,0-.43,2.7C306.43,175.58,306.39,176.4,306.39,177.13Z"/><path class="cls-7" d="M340.34,177.63a29.89,29.89,0,0,0,4.17-1.73,18.77,18.77,0,0,0,3.25-2.08,9.15,9.15,0,0,0,2.1-2.32,4.74,4.74,0,0,0,.75-2.5,2.45,2.45,0,0,0-.2-1,2.49,2.49,0,0,0-.54-.76,2.4,2.4,0,0,0-.78-.49,2.77,2.77,0,0,0-1-.17,5,5,0,0,0-2.49.75,10.8,10.8,0,0,0-2.55,2.15,22,22,0,0,0-2.46,3.44,33.3,33.3,0,0,0-2.23,4.63,50.25,50.25,0,0,0-1.85,5.7,57.88,57.88,0,0,0-1.31,6.62l-3.85.5-.3,0c.07-1.5.16-3.15.25-5s.2-3.73.31-5.76.22-4.15.34-6.35.24-4.45.36-6.73.25-4.59.37-6.92.25-4.62.38-6.88.23-4.49.35-6.66.22-4.24.32-6.22a1.32,1.32,0,0,1,.27-.79,1.78,1.78,0,0,1,.64-.54,3.25,3.25,0,0,1,.88-.29,4.93,4.93,0,0,1,1-.1,5.61,5.61,0,0,1,2.4.61q-.44,3.9-.78,7.16t-.62,6.05c-.18,1.86-.35,3.6-.5,5.22s-.29,3.16-.41,4.64-.24,2.93-.35,4.34-.21,2.86-.31,4.32-.21,3-.32,4.53-.22,3.24-.35,5l.12,0a41.4,41.4,0,0,1,1.62-4.48,40.88,40.88,0,0,1,2.05-4.2,31.08,31.08,0,0,1,2.42-3.67,19.56,19.56,0,0,1,2.7-2.91,12.51,12.51,0,0,1,2.92-1.91,7.25,7.25,0,0,1,3-.7,4.91,4.91,0,0,1,1.79.32,4,4,0,0,1,2.36,2.29,4.89,4.89,0,0,1,.33,1.83,7.23,7.23,0,0,1-.69,3.07,10.84,10.84,0,0,1-1.94,2.85,17.82,17.82,0,0,1-3,2.6,28.51,28.51,0,0,1-3.91,2.28c.85,1.56,1.62,2.9,2.29,4s1.3,2,1.85,2.8a15.76,15.76,0,0,0,1.5,1.8,6.28,6.28,0,0,0,1.23,1,3.32,3.32,0,0,0,1.05.45,4.77,4.77,0,0,0,1,.11,7.26,7.26,0,0,0,2.06-.31,14.84,14.84,0,0,0,2.15-.8l.36,1a11.81,11.81,0,0,1-1.73,1.13,20.6,20.6,0,0,1-2.22,1,16.58,16.58,0,0,1-2.32.77,8.23,8.23,0,0,1-2,.3,3.44,3.44,0,0,1-2.05-.75,11.14,11.14,0,0,1-2.19-2.33,46.17,46.17,0,0,1-2.58-4c-.94-1.62-2-3.56-3.23-5.8Z"/><path class="cls-7" d="M362.81,183a5.84,5.84,0,0,0,.77,2.49,5.91,5.91,0,0,0,1.57,1.72,7.06,7.06,0,0,0,2.07,1,8.45,8.45,0,0,0,2.26.32,6.81,6.81,0,0,0,2-.29,5.87,5.87,0,0,0,1.71-.81,4.29,4.29,0,0,0,1.19-1.32,3.43,3.43,0,0,0,.45-1.75,3.26,3.26,0,0,0-.48-1.77,5.51,5.51,0,0,0-1.27-1.39,11.13,11.13,0,0,0-1.86-1.16L369,179l-2-1c-.68-.32-1.33-.68-2-1.06a16.47,16.47,0,0,1-1.78-1.23,8.81,8.81,0,0,1-1.45-1.48,6.69,6.69,0,0,1-1-1.81,6.8,6.8,0,0,1-.35-2.22,6.21,6.21,0,0,1,.46-2.42,7.08,7.08,0,0,1,1.24-2,9.16,9.16,0,0,1,1.83-1.55,12.11,12.11,0,0,1,2.22-1.11,13.67,13.67,0,0,1,2.43-.67,14.63,14.63,0,0,1,2.43-.22,11.71,11.71,0,0,1,2.88.34,7.87,7.87,0,0,1,2.38,1A5.12,5.12,0,0,1,378,165.1a3.66,3.66,0,0,1,.6,2.06,3.45,3.45,0,0,1-.15,1,2.82,2.82,0,0,1-.52,1,2.88,2.88,0,0,1-1,.75,3.41,3.41,0,0,1-1.45.33,6.32,6.32,0,0,1-1.67-.25l-.06-.19a5.56,5.56,0,0,0,.38-1.13,4.19,4.19,0,0,0,.12-1,2.67,2.67,0,0,0-.45-1.47,3.65,3.65,0,0,0-1.08-1,5.12,5.12,0,0,0-1.43-.55,7.68,7.68,0,0,0-1.56-.17,7.6,7.6,0,0,0-2.42.36,5.91,5.91,0,0,0-1.8,1,4.39,4.39,0,0,0-1.12,1.37,3.39,3.39,0,0,0-.39,1.58,3.34,3.34,0,0,0,.55,1.87,6.6,6.6,0,0,0,1.47,1.53,14.82,14.82,0,0,0,2.1,1.3c.8.41,1.63.81,2.49,1.22s1.92.93,2.87,1.42a13.93,13.93,0,0,1,2.56,1.66,7.86,7.86,0,0,1,1.81,2.15,5.51,5.51,0,0,1,.7,2.84,6.93,6.93,0,0,1-.87,3.49,8.1,8.1,0,0,1-2.31,2.57,10.64,10.64,0,0,1-3.32,1.59,14,14,0,0,1-3.9.54,15,15,0,0,1-2.08-.15,12.94,12.94,0,0,1-2.09-.46,11.85,11.85,0,0,1-1.91-.75,7.31,7.31,0,0,1-1.58-1,4.63,4.63,0,0,1-1.07-1.29,3.23,3.23,0,0,1-.39-1.57,2.45,2.45,0,0,1,.31-1.26,2.66,2.66,0,0,1,.83-.84,4,4,0,0,1,1.16-.48,6.27,6.27,0,0,1,1.3-.19Z"/></g></g></svg>