<svg xmlns="http://www.w3.org/2000/svg" xmlns:xlink="http://www.w3.org/1999/xlink" viewBox="0 0 400.15 213.6"><defs><style>.cls-1{fill:url(#radial-gradient);}.cls-2{fill:#fff;}.cls-3{fill:url(#radial-gradient-2);}.cls-4{fill:url(#radial-gradient-3);}.cls-5{fill:url(#radial-gradient-4);}.cls-6{fill:none;stroke:#fff;stroke-linecap:round;stroke-linejoin:round;stroke-width:4px;}</style><radialGradient id="radial-gradient" cx="259.61" cy="44.12" fx="278.5238036075572" fy="29.172213418363302" r="24.11" gradientUnits="userSpaceOnUse"><stop offset="0.15" stop-color="#00a5d5"/><stop offset="1" stop-color="#3a4a9e"/></radialGradient><radialGradient id="radial-gradient-2" cx="136.9" cy="23.81" fx="136.9042968750009" fy="23.805118110250078" r="40.97" xlink:href="#radial-gradient"/><radialGradient id="radial-gradient-3" cx="220.8" cy="18.02" fx="220.7971540178578" fy="18.01940382453631" r="92.34" xlink:href="#radial-gradient"/><radialGradient id="radial-gradient-4" cx="200.55" cy="129.88" fx="200.5471540178578" fy="129.87654668167943" r="291.1" xlink:href="#radial-gradient"/></defs><title>PoB Logo</title><g id="Layer_2" data-name="Layer 2"><g id="Layer_1-2" data-name="Layer 1"><circle class="cls-1" cx="259.61" cy="44.12" r="24.11"/><path class="cls-2" d="M269.09,35.13a18.74,18.74,0,0,1,1.63,23.79,19.26,19.26,0,0,0,2.8-2.19,18.73,18.73,0,1,0-25.76-27.19,18.42,18.42,0,0,0-2.34,2.68A18.74,18.74,0,0,1,269.09,35.13Z"/><circle class="cls-3" cx="146.38" cy="41.66" r="24.11"/><path class="cls-2" d="M135.53,34.39a18.73,18.73,0,0,1,22.85-6.82,19,19,0,0,0-2.76-2.26,18.73,18.73,0,0,0-20.85,31.12,19.81,19.81,0,0,0,3.13,1.69A18.72,18.72,0,0,1,135.53,34.39Z"/><circle class="cls-4" cx="201.23" cy="44.12" r="44.12"/><path class="cls-2" d="M201.23,20.21A34.28,34.28,0,0,1,234.88,48a34.66,34.66,0,0,0,.62-6.49,34.28,34.28,0,0,0-68.55,0,33.85,33.85,0,0,0,.63,6.49A34.27,34.27,0,0,1,201.23,20.21Z"/><path class="cls-2" d="M15,114.05l7.25-14.49,80.88-22.93s51.31-20.53,89.94,32l7.77,4.9.43,18.64-25.82-13.88H15Z"/><path class="cls-2" d="M386.49,113.21l-7.25-14.49L298.35,75.78s-51.3-20.52-89.94,32l-8.49,6.58.43,18.64,26.55-14.51,159.59-1Z"/><path class="cls-5" d="M209.13,134.66l-16.2,0a23.47,23.47,0,0,1-19.67-13.87H4.5a4.5,4.5,0,0,1,0-9H176.42l4.38,3.46a14.56,14.56,0,0,0,12.73,10.43h15.4a14.57,14.57,0,0,0,12.73-10.46l4.37-3.43H395.65a4.5,4.5,0,0,1,0,9H229.19a23.47,23.47,0,0,1-19.67,13.87Z"/><path class="cls-6" d="M44.62,86.42l25-4.28c4.7-.84,9.37-1.89,14-3.16l24.15-6.93a73.82,73.82,0,0,1,21.63-3.4c8.21-.06,18.64.43,25.17,2.82,8.73,3.2,23.14,6.5,45.36,41.39v4.34"/><path class="cls-6" d="M355.21,86.42l-25-4.28q-7.05-1.26-14-3.16l-24.15-6.93a73.81,73.81,0,0,0-21.62-3.4c-8.22-.06-18.65.43-25.17,2.82-8.73,3.2-23.14,6.5-45.36,41.39v4.34"/><path class="cls-6" d="M355.21,78.81c-1.69,0-3,3-68.59-14.15s-86.7,44.57-86.7,44.57a55.16,55.16,0,0,1,2.25-8.07c12-34.2,48.61-53.18,83.64-43.83,23.45,6.26,60.51,15.14,69.4,11.32"/><path class="cls-6" d="M44.62,78.81c1.7,0,3,3,68.6-14.15s86.7,44.57,86.7,44.57a56.2,56.2,0,0,0-2.26-8.07C185.66,67,149.05,48,114,57.33c-23.45,6.26-60.5,15.14-69.4,11.32"/><path class="cls-2" d="M29.15,156.51a6,6,0,0,0-.14-1.37,1.83,1.83,0,0,0-1.39-1.47,5.63,5.63,0,0,0-1.5-.17,23.42,23.42,0,0,0-3.22.29l-.23-1.7c1.2-.21,2.5-.44,3.92-.67s2.87-.43,4.36-.62,3-.35,4.49-.47,3-.18,4.33-.18a25.51,25.51,0,0,1,5.15.49,11.93,11.93,0,0,1,4.21,1.69A8.46,8.46,0,0,1,52,155.52a10.66,10.66,0,0,1,1.05,5,15.9,15.9,0,0,1-1.17,6.25,13.17,13.17,0,0,1-3.29,4.7,14.45,14.45,0,0,1-5.07,2.94,20,20,0,0,1-6.54,1,1.89,1.89,0,0,1-1.13-.25,1.32,1.32,0,0,1-.32-1.06v-.25a1.15,1.15,0,0,1,0-.29,17.4,17.4,0,0,0,4.81-.58,11.61,11.61,0,0,0,3.38-1.54,8.44,8.44,0,0,0,2.19-2.19,10.82,10.82,0,0,0,1.25-2.53,12.22,12.22,0,0,0,.57-2.58,22.22,22.22,0,0,0,.14-2.31,12,12,0,0,0-.77-4.6,7.48,7.48,0,0,0-2.1-2.92,7.87,7.87,0,0,0-3.09-1.53,15.27,15.27,0,0,0-3.77-.45c-.68,0-1.32,0-1.94.08s-1.28.12-2,.21c0,1-.06,2.28-.1,3.92s-.1,3.52-.15,5.64-.13,4.46-.2,7-.16,5.18-.23,7.94-.16,5.6-.25,8.52L33,194.35l-4.51.57-.34,0c.15-3.64.29-7.1.42-10.36s.23-6.44.31-9.53.15-6.15.2-9.18S29.15,159.68,29.15,156.51Z"/><path class="cls-2" d="M71.82,188.44l.3.17a1.94,1.94,0,0,1,.33.23,2.23,2.23,0,0,1,.27.26.5.5,0,0,1,.11.28.24.24,0,0,1-.06.15,15.6,15.6,0,0,1-2.29,2.58,14.32,14.32,0,0,1-2.55,1.83,11,11,0,0,1-2.7,1.08,10.56,10.56,0,0,1-2.7.36,9.3,9.3,0,0,1-4.19-.94,10.06,10.06,0,0,1-3.28-2.55,12.14,12.14,0,0,1-2.14-3.8,14,14,0,0,1-.77-4.67,18.89,18.89,0,0,1,.45-4.08,19.42,19.42,0,0,1,1.29-3.88A18.37,18.37,0,0,1,56,172a14.48,14.48,0,0,1,2.77-2.76,13.06,13.06,0,0,1,3.41-1.84,11.85,11.85,0,0,1,4-.66,9.09,9.09,0,0,1,2.68.38,7,7,0,0,1,2.24,1.09A5.39,5.39,0,0,1,72.58,170a4.79,4.79,0,0,1,.58,2.38,5,5,0,0,1-1.27,3.39,10.07,10.07,0,0,1-3.49,2.46,25.62,25.62,0,0,1-5.25,1.63,57.19,57.19,0,0,1-6.52.92v.32a14.93,14.93,0,0,0,.62,4.46A11.07,11.07,0,0,0,59,189a7.94,7.94,0,0,0,2.55,2.23,6.43,6.43,0,0,0,3.16.8,8.28,8.28,0,0,0,3.52-.84A12.92,12.92,0,0,0,71.82,188.44Zm-3.58-15.29a4.58,4.58,0,0,0-.29-1.63,4.19,4.19,0,0,0-.82-1.33,3.83,3.83,0,0,0-1.25-.88,3.7,3.7,0,0,0-1.56-.33,5.64,5.64,0,0,0-2.25.44,6.38,6.38,0,0,0-1.81,1.19,8.72,8.72,0,0,0-1.41,1.75,13.09,13.09,0,0,0-1,2.13,16.51,16.51,0,0,0-.7,2.3,20,20,0,0,0-.38,2.3,33.56,33.56,0,0,0,4.85-.65,15.65,15.65,0,0,0,3.62-1.2,6.32,6.32,0,0,0,2.25-1.75A3.75,3.75,0,0,0,68.24,173.15Z"/><path class="cls-2" d="M92.47,174.77a6.36,6.36,0,0,0-.5-2.61,5.3,5.3,0,0,0-1.29-1.81,5.37,5.37,0,0,0-1.81-1,6.27,6.27,0,0,0-2-.35,7.93,7.93,0,0,0-2.29.29,4.21,4.21,0,0,0-1.51.78,2.83,2.83,0,0,0-.84,1.17,4.11,4.11,0,0,0-.26,1.46,5.24,5.24,0,0,0,.34,1.84,7.25,7.25,0,0,0,1,1.8l-.08.21A5,5,0,0,1,81,177a3.7,3.7,0,0,1-1.21-.2,3,3,0,0,1-1-.58,2.87,2.87,0,0,1-.65-.94,3,3,0,0,1-.23-1.23,4.37,4.37,0,0,1,.54-2.12,7,7,0,0,1,1.44-1.81A10.45,10.45,0,0,1,82,168.7a17.2,17.2,0,0,1,2.44-1.1,16.82,16.82,0,0,1,2.52-.68,12.74,12.74,0,0,1,2.35-.24,9.83,9.83,0,0,1,3.42.53A5.71,5.71,0,0,1,95,168.76a6.27,6.27,0,0,1,1.29,2.47,12.16,12.16,0,0,1,.41,3.28c0,.83,0,1.75-.1,2.76s-.15,2-.24,3.15-.17,2.23-.24,3.4-.1,2.33-.1,3.48a6.88,6.88,0,0,0,1,4.12,3.17,3.17,0,0,0,2.68,1.39,6.58,6.58,0,0,0,3.28-1.09l.55.82a9.15,9.15,0,0,1-2.78,1.94,7.67,7.67,0,0,1-3.16.67,6.1,6.1,0,0,1-2.29-.42,5,5,0,0,1-1.81-1.25,5.69,5.69,0,0,1-1.18-2.08,9.22,9.22,0,0,1-.42-2.92q0-.49,0-1a10.07,10.07,0,0,1,.12-1H92a30.36,30.36,0,0,1-1.89,3.22,17.94,17.94,0,0,1-2.37,2.84,12.1,12.1,0,0,1-2.74,2,6.48,6.48,0,0,1-3,.77,6,6,0,0,1-2.4-.46,5.4,5.4,0,0,1-1.86-1.25,5.91,5.91,0,0,1-1.2-1.9A6.39,6.39,0,0,1,76,189.3a7.31,7.31,0,0,1,.62-3,8,8,0,0,1,1.71-2.46A10.7,10.7,0,0,1,81,181.92a19,19,0,0,1,3.32-1.31,24.19,24.19,0,0,1,3.79-.78,32.11,32.11,0,0,1,4.07-.26c.09-.8.16-1.57.22-2.32S92.47,175.67,92.47,174.77Zm-11.7,13.08a6.5,6.5,0,0,0,.16,1.42,3.47,3.47,0,0,0,.52,1.19,2.38,2.38,0,0,0,.89.81,2.7,2.7,0,0,0,1.31.3,4.52,4.52,0,0,0,1.77-.4,8.27,8.27,0,0,0,1.8-1.11,11.64,11.64,0,0,0,1.69-1.68,14.66,14.66,0,0,0,1.46-2.14,14.93,14.93,0,0,0,1.08-2.45,12.54,12.54,0,0,0,.56-2.64c-.94,0-1.87.09-2.8.18a20.73,20.73,0,0,0-2.64.45,12.31,12.31,0,0,0-2.31.8,6.73,6.73,0,0,0-1.84,1.23,5.29,5.29,0,0,0-1.21,1.73A5.77,5.77,0,0,0,80.77,187.85Z"/><path class="cls-2" d="M107.32,194.84l-.31,0c.11-1.2.2-2.52.29-3.94s.17-2.86.25-4.33.14-2.92.2-4.36.1-2.79.15-4,.08-2.37.09-3.36,0-1.77,0-2.34,0-.88,0-1.22a2.29,2.29,0,0,0-.26-.86,1.19,1.19,0,0,0-.58-.5,2.68,2.68,0,0,0-1-.16l-.67,0-.76.12-.94.2-1.21.29-.29-1.37a50,50,0,0,1,5.13-1.61,14.11,14.11,0,0,1,2.64-.46,2.08,2.08,0,0,1,1.8.73,3.6,3.6,0,0,1,.55,2.18c0,.09,0,.35,0,.78s-.06,1-.11,1.69-.1,1.49-.16,2.41-.14,1.89-.22,2.94-.17,2.14-.27,3.27-.21,2.27-.33,3.4l.19,0a70.21,70.21,0,0,1,2.07-7,31.24,31.24,0,0,1,2.59-5.61,13.9,13.9,0,0,1,3.16-3.74,6,6,0,0,1,3.78-1.36,4,4,0,0,1,1.35.23,3.2,3.2,0,0,1,1.09.64,3,3,0,0,1,.72,1,2.77,2.77,0,0,1,.27,1.23,3.89,3.89,0,0,1-.37,1.64,3.77,3.77,0,0,1-1.17,1.4h-.16a6.08,6.08,0,0,0-1.51-1,3.87,3.87,0,0,0-1.51-.29,4.27,4.27,0,0,0-1.66.32,5,5,0,0,0-1.47.93,11,11,0,0,0-2,2.62,26.88,26.88,0,0,0-1.7,3.61c-.52,1.32-1,2.71-1.39,4.16s-.77,2.87-1.07,4.25-.54,2.67-.72,3.88-.31,2.23-.39,3.06Z"/><path class="cls-2" d="M136.76,143.24c-.25,2.15-.51,4.37-.75,6.63s-.49,4.56-.71,6.88-.43,4.64-.62,7-.35,4.63-.49,6.9-.25,4.49-.33,6.67-.11,4.28-.11,6.29c0,1.26,0,2.33.05,3.24s.08,1.66.15,2.28a8.44,8.44,0,0,0,.29,1.51,2.51,2.51,0,0,0,.44.87,1.36,1.36,0,0,0,.63.41,3.1,3.1,0,0,0,.86.11,8,8,0,0,0,2-.28,12.85,12.85,0,0,0,2.14-.77l.36,1a11.41,11.41,0,0,1-1.72,1.12,23.13,23.13,0,0,1-2.18,1.05,18,18,0,0,1-2.24.77,7.32,7.32,0,0,1-1.89.3,2.39,2.39,0,0,1-1.63-.53,3.26,3.26,0,0,1-.91-1.7,14.45,14.45,0,0,1-.4-3.08q-.09-1.89-.09-4.62,0-1,.06-2.82c0-1.23.09-2.65.16-4.28s.15-3.4.24-5.33.18-3.93.28-6,.21-4.14.33-6.25.23-4.13.34-6.09.22-3.81.32-5.55.2-3.28.29-4.61a1.34,1.34,0,0,1,.27-.79,1.72,1.72,0,0,1,.63-.53,3.38,3.38,0,0,1,.88-.3,5.33,5.33,0,0,1,1-.09A5.47,5.47,0,0,1,136.76,143.24Z"/><path class="cls-2" d="M145.35,187.47a5.7,5.7,0,0,0,.77,2.5,5.62,5.62,0,0,0,1.57,1.71,6.39,6.39,0,0,0,2.07,1A8,8,0,0,0,152,193a7.15,7.15,0,0,0,2-.29,5.59,5.59,0,0,0,1.72-.82,4.14,4.14,0,0,0,1.19-1.31,3.55,3.55,0,0,0,.44-1.75,3.35,3.35,0,0,0-.47-1.78,5.74,5.74,0,0,0-1.28-1.39,11.64,11.64,0,0,0-1.86-1.16l-2.2-1.08-2-1c-.68-.33-1.34-.68-2-1.06a15.35,15.35,0,0,1-1.79-1.24,8.39,8.39,0,0,1-1.44-1.48,6.37,6.37,0,0,1-1-1.8,6.54,6.54,0,0,1-.36-2.22,6.36,6.36,0,0,1,.46-2.42,7,7,0,0,1,1.25-2,8.59,8.59,0,0,1,1.83-1.55,11.55,11.55,0,0,1,2.22-1.12,13.31,13.31,0,0,1,2.42-.66,13.64,13.64,0,0,1,2.43-.22,12.24,12.24,0,0,1,2.89.33,8.25,8.25,0,0,1,2.38,1,5.23,5.23,0,0,1,1.62,1.55,3.68,3.68,0,0,1,.6,2.06,3.43,3.43,0,0,1-.16.95,2.62,2.62,0,0,1-.51,1,3,3,0,0,1-.95.76,3.34,3.34,0,0,1-1.45.32,6.06,6.06,0,0,1-1.68-.25l-.05-.19a7.06,7.06,0,0,0,.38-1.12,4.78,4.78,0,0,0,.11-.95,2.52,2.52,0,0,0-.45-1.48,3.35,3.35,0,0,0-1.07-1,4.79,4.79,0,0,0-1.44-.55,6.94,6.94,0,0,0-1.55-.17,7.55,7.55,0,0,0-2.42.36,5.7,5.7,0,0,0-1.8,1,4.22,4.22,0,0,0-1.12,1.36,3.45,3.45,0,0,0-.39,1.58,3.29,3.29,0,0,0,.55,1.88,6.52,6.52,0,0,0,1.46,1.52,14.1,14.1,0,0,0,2.11,1.31c.79.4,1.62.81,2.48,1.21s1.93.93,2.88,1.42a14.22,14.22,0,0,1,2.55,1.67,7.86,7.86,0,0,1,1.82,2.14,5.68,5.68,0,0,1,.7,2.85,6.86,6.86,0,0,1-.87,3.48,8,8,0,0,1-2.31,2.57,10.69,10.69,0,0,1-3.33,1.59,13.65,13.65,0,0,1-3.89.55,15.12,15.12,0,0,1-2.09-.15,15.69,15.69,0,0,1-2.08-.46,13,13,0,0,1-1.92-.75,8,8,0,0,1-1.58-1,4.63,4.63,0,0,1-1.06-1.3,3.21,3.21,0,0,1-.39-1.57,2.4,2.4,0,0,1,.31-1.26,2.53,2.53,0,0,1,.83-.83,4,4,0,0,1,1.15-.49,5.74,5.74,0,0,1,1.31-.18Z"/><path class="cls-2" d="M178.58,183.4a20.19,20.19,0,0,1,1.58-7.74,18.25,18.25,0,0,1,1.93-3.49,14.1,14.1,0,0,1,2.66-2.84,12,12,0,0,1,3.35-1.93,11.17,11.17,0,0,1,4-.7,8.78,8.78,0,0,1,4.31,1,9.79,9.79,0,0,1,3.15,2.71,12.18,12.18,0,0,1,1.94,3.84,15.22,15.22,0,0,1,.65,4.4,19.42,19.42,0,0,1-.4,3.9,19.18,19.18,0,0,1-1.19,3.84,18.77,18.77,0,0,1-1.94,3.48,13.89,13.89,0,0,1-2.66,2.85,12.22,12.22,0,0,1-3.35,1.92,11.17,11.17,0,0,1-4,.71,8.89,8.89,0,0,1-4.31-1,9.68,9.68,0,0,1-3.14-2.72,12.22,12.22,0,0,1-1.93-3.83A15.27,15.27,0,0,1,178.58,183.4Zm4.55-1.81a18.23,18.23,0,0,0,.2,2.63,14.6,14.6,0,0,0,.62,2.57,12.71,12.71,0,0,0,1,2.31,8.29,8.29,0,0,0,1.46,1.88,6.5,6.5,0,0,0,1.91,1.25,5.7,5.7,0,0,0,2.33.46,4.89,4.89,0,0,0,2.45-.6A6.13,6.13,0,0,0,195,190.5a9,9,0,0,0,1.28-2.26,17.14,17.14,0,0,0,.81-2.64,21.62,21.62,0,0,0,.43-2.7c.08-.89.12-1.7.12-2.45a18,18,0,0,0-.2-2.64,14.38,14.38,0,0,0-.62-2.55,12.71,12.71,0,0,0-1-2.31,8,8,0,0,0-1.46-1.86,6.5,6.5,0,0,0-1.91-1.25,5.87,5.87,0,0,0-2.33-.46,5,5,0,0,0-2.45.59,6.09,6.09,0,0,0-1.82,1.58,9.09,9.09,0,0,0-1.28,2.27,17,17,0,0,0-.81,2.63,21.18,21.18,0,0,0-.43,2.69C183.17,180,183.13,180.85,183.13,181.59Z"/><path class="cls-2" d="M214.78,168.22l1.84.06,1.65,0,1.39,0h1.06c.58,0,1.14,0,1.66-.06l1.33-.12a4.47,4.47,0,0,1,.21,1.15,1.06,1.06,0,0,1-.7,1.1,5.77,5.77,0,0,1-2,.27c-.87,0-1.85-.05-2.93-.15l-3.56-.27c-.05,1.51-.11,3.15-.19,4.93s-.17,3.62-.29,5.52-.27,3.84-.45,5.8-.4,3.88-.66,5.74-.57,3.65-.92,5.34a40.27,40.27,0,0,1-1.24,4.62,25.17,25.17,0,0,1-2.53,5.44,15.37,15.37,0,0,1-3,3.5,10.07,10.07,0,0,1-3.3,1.89,10.91,10.91,0,0,1-3.4.56,11.06,11.06,0,0,1-2.71-.32,8.19,8.19,0,0,1-2.16-.88,4.89,4.89,0,0,1-1.44-1.28,2.63,2.63,0,0,1-.52-1.56,2.11,2.11,0,0,1,.21-.9,2.49,2.49,0,0,1,.58-.79,3,3,0,0,1,.87-.56,2.7,2.7,0,0,1,1.1-.22,7.91,7.91,0,0,0,1.22,1.68,6.4,6.4,0,0,0,1.43,1.15,6.2,6.2,0,0,0,1.58.65,6.55,6.55,0,0,0,1.65.21,5.3,5.3,0,0,0,3.73-1.42,10.9,10.9,0,0,0,2.57-4,30.22,30.22,0,0,0,1.63-6.27q.59-3.67.9-8.18t.42-9.73c.07-3.48.12-7.14.14-11-1.19,0-2.3.06-3.31.14a9.3,9.3,0,0,0-2.55.49.9.9,0,0,1-.08-.36,1.14,1.14,0,0,1,.44-.85,3.9,3.9,0,0,1,1.23-.69,9.62,9.62,0,0,1,1.9-.5,19.43,19.43,0,0,1,2.47-.25c.05-1.19.11-2.33.19-3.42s.17-2.15.29-3.21.27-2.13.45-3.19.4-2.17.67-3.32a20.5,20.5,0,0,1,1.33-4,17.19,17.19,0,0,1,1.86-3.16,13.36,13.36,0,0,1,4.73-4,11.66,11.66,0,0,1,2.59-.93,12.06,12.06,0,0,1,2.57-.29,10.34,10.34,0,0,1,3.28.48,8.16,8.16,0,0,1,2.44,1.28,5.4,5.4,0,0,1,1.52,1.78,4.26,4.26,0,0,1,.53,2,3.71,3.71,0,0,1-.26,1.42,3,3,0,0,1-1.74,1.72,3.48,3.48,0,0,1-1.26.23,4.57,4.57,0,0,1-1.85-.44l-.07-.21a12.63,12.63,0,0,0,.54-1.47,4.62,4.62,0,0,0,.18-1.29,3.12,3.12,0,0,0-.37-1.57,3.26,3.26,0,0,0-1-1.08,4.14,4.14,0,0,0-1.33-.61,6.16,6.16,0,0,0-1.46-.19,6.56,6.56,0,0,0-3.61.95,7.86,7.86,0,0,0-2.46,2.62,15.06,15.06,0,0,0-1.55,3.92,35.91,35.91,0,0,0-.86,4.87q-.3,2.61-.42,5.46C214.91,164.43,214.84,166.33,214.78,168.22Z"/><path class="cls-2" d="M243.65,156.51a6,6,0,0,0-.14-1.37,1.83,1.83,0,0,0-1.39-1.47,5.63,5.63,0,0,0-1.5-.17,23.42,23.42,0,0,0-3.22.29l-.19-1.7c1.16-.21,2.41-.44,3.77-.67s2.76-.43,4.2-.62,2.89-.35,4.34-.47,2.86-.18,4.22-.18a31.9,31.9,0,0,1,3.26.17,18.79,18.79,0,0,1,3,.56,11.84,11.84,0,0,1,2.63,1.05,8,8,0,0,1,2.08,1.63,7.2,7.2,0,0,1,1.37,2.29,8.69,8.69,0,0,1,.49,3,10.3,10.3,0,0,1-.88,4.37,10.64,10.64,0,0,1-2.39,3.33,13.77,13.77,0,0,1-3.47,2.38,21.93,21.93,0,0,1-4.13,1.54v.17a23.7,23.7,0,0,1,5.28.95,13.31,13.31,0,0,1,4.19,2.11,9.79,9.79,0,0,1,2.77,3.39,10.76,10.76,0,0,1,1,4.78,13,13,0,0,1-.64,4.19,11.08,11.08,0,0,1-4.42,5.79,16,16,0,0,1-3.32,1.7,20.05,20.05,0,0,1-3.77,1,26.5,26.5,0,0,1-7.21.12c-1-.13-2.11-.28-3.27-.48l-3.69.44-.34,0c.16-1.67.31-3.48.44-5.42s.25-4,.35-6.1.18-4.29.25-6.53.14-4.48.18-6.75.08-4.52.1-6.76S243.65,158.63,243.65,156.51ZM247.19,192a19.34,19.34,0,0,0,2.72.49,25.36,25.36,0,0,0,2.61.14,16.06,16.06,0,0,0,4.42-.59,9.58,9.58,0,0,0,3.57-1.82,8.59,8.59,0,0,0,2.38-3.2,11.43,11.43,0,0,0,.87-4.68,10.59,10.59,0,0,0-.88-4.44,8.25,8.25,0,0,0-2.54-3.19,11.51,11.51,0,0,0-4.11-1.92,22.21,22.21,0,0,0-5.56-.63c-.4,0-.82,0-1.24,0l-1.29.07c0,.77-.06,1.68-.09,2.71s-.09,2.15-.14,3.33-.1,2.4-.16,3.65-.12,2.49-.18,3.7-.13,2.35-.19,3.44S247.25,191.12,247.19,192Zm1.43-39.34c0,.82,0,1.83-.06,3s-.06,2.55-.09,4-.08,3.11-.13,4.86-.09,3.6-.14,5.55a27.55,27.55,0,0,0,3.28-.28,20.16,20.16,0,0,0,3.11-.71,13,13,0,0,0,2.73-1.25A9.1,9.1,0,0,0,259.5,166a8,8,0,0,0,1.45-2.54,9.76,9.76,0,0,0,.52-3.32,8.73,8.73,0,0,0-.7-3.7,6.3,6.3,0,0,0-1.94-2.42,7.79,7.79,0,0,0-2.87-1.31,14.8,14.8,0,0,0-3.53-.4c-.61,0-1.24,0-1.88.08S249.27,152.52,248.62,152.63Z"/><path class="cls-2" d="M273,183.4a19.51,19.51,0,0,1,.4-3.91,20.22,20.22,0,0,1,1.18-3.83,18.81,18.81,0,0,1,1.93-3.49,14.39,14.39,0,0,1,2.66-2.84,12,12,0,0,1,3.35-1.93,11.17,11.17,0,0,1,4-.7,8.75,8.75,0,0,1,4.31,1,9.94,9.94,0,0,1,3.16,2.71,12.16,12.16,0,0,1,1.93,3.84,14.89,14.89,0,0,1,.66,4.4,20.17,20.17,0,0,1-.4,3.9,19.88,19.88,0,0,1-1.2,3.84,18.21,18.21,0,0,1-1.94,3.48,14.12,14.12,0,0,1-2.65,2.85,12.27,12.27,0,0,1-3.36,1.92,11.16,11.16,0,0,1-4,.71,8.9,8.9,0,0,1-4.32-1,9.79,9.79,0,0,1-3.14-2.72,12.41,12.41,0,0,1-1.92-3.83A14.94,14.94,0,0,1,273,183.4Zm4.55-1.81a18.23,18.23,0,0,0,.2,2.63,15.54,15.54,0,0,0,.62,2.57,13.43,13.43,0,0,0,1,2.31A8.29,8.29,0,0,0,280.9,191a6.5,6.5,0,0,0,1.91,1.25,5.7,5.7,0,0,0,2.33.46,4.89,4.89,0,0,0,2.45-.6,6.29,6.29,0,0,0,1.83-1.59,9,9,0,0,0,1.27-2.26,17.14,17.14,0,0,0,.81-2.64,19.92,19.92,0,0,0,.43-2.7c.08-.89.12-1.7.12-2.45a16.76,16.76,0,0,0-.2-2.64,14.37,14.37,0,0,0-.61-2.55,13.43,13.43,0,0,0-1-2.31,7.74,7.74,0,0,0-1.47-1.86,6.46,6.46,0,0,0-1.9-1.25,5.92,5.92,0,0,0-2.34-.46,5,5,0,0,0-2.44.59,6,6,0,0,0-1.83,1.58,9.42,9.42,0,0,0-1.28,2.27,19.53,19.53,0,0,0-.81,2.63,21.14,21.14,0,0,0-.42,2.69C277.62,180,277.58,180.85,277.58,181.59Z"/><path class="cls-2" d="M300.74,183.4a20.19,20.19,0,0,1,1.58-7.74,18.25,18.25,0,0,1,1.93-3.49,14.39,14.39,0,0,1,2.66-2.84,12,12,0,0,1,3.35-1.93,11.17,11.17,0,0,1,4-.7,8.78,8.78,0,0,1,4.31,1,9.79,9.79,0,0,1,3.15,2.71,12.18,12.18,0,0,1,1.94,3.84,15.22,15.22,0,0,1,.65,4.4,19.42,19.42,0,0,1-.4,3.9,19.18,19.18,0,0,1-1.19,3.84,18.21,18.21,0,0,1-1.94,3.48,13.89,13.89,0,0,1-2.66,2.85,12.22,12.22,0,0,1-3.35,1.92,11.17,11.17,0,0,1-4,.71,8.89,8.89,0,0,1-4.31-1,9.68,9.68,0,0,1-3.14-2.72,12,12,0,0,1-1.92-3.83A14.94,14.94,0,0,1,300.74,183.4Zm4.55-1.81a18.23,18.23,0,0,0,.2,2.63,14.6,14.6,0,0,0,.62,2.57,12.71,12.71,0,0,0,1,2.31,8.29,8.29,0,0,0,1.46,1.88,6.5,6.5,0,0,0,1.91,1.25,5.7,5.7,0,0,0,2.33.46,4.89,4.89,0,0,0,2.45-.6,6.29,6.29,0,0,0,1.83-1.59,9.32,9.32,0,0,0,1.27-2.26,17.14,17.14,0,0,0,.81-2.64,21.62,21.62,0,0,0,.43-2.7c.08-.89.12-1.7.12-2.45a16.76,16.76,0,0,0-.2-2.64,14.38,14.38,0,0,0-.62-2.55,13.4,13.4,0,0,0-1-2.31,8.27,8.27,0,0,0-1.47-1.86,6.59,6.59,0,0,0-1.9-1.25,6,6,0,0,0-2.34-.46,5,5,0,0,0-2.45.59,6.09,6.09,0,0,0-1.82,1.58,9.09,9.09,0,0,0-1.28,2.27,17,17,0,0,0-.81,2.63,23.13,23.13,0,0,0-.43,2.69C305.33,180,305.29,180.85,305.29,181.59Z"/><path class="cls-2" d="M339.24,182.08a27.65,27.65,0,0,0,4.17-1.73,19.37,19.37,0,0,0,3.25-2.07,9.18,9.18,0,0,0,2.1-2.33,4.69,4.69,0,0,0,.75-2.49,2.42,2.42,0,0,0-.2-1,2.29,2.29,0,0,0-1.32-1.25,2.77,2.77,0,0,0-1-.17,5,5,0,0,0-2.48.74A10.87,10.87,0,0,0,342,174a21.63,21.63,0,0,0-2.46,3.45A33.89,33.89,0,0,0,337.3,182a51.44,51.44,0,0,0-1.85,5.69,58.5,58.5,0,0,0-1.31,6.63l-3.85.49-.3,0c.07-1.49.16-3.15.26-5s.19-3.73.3-5.76.22-4.14.34-6.35.24-4.44.36-6.73.25-4.59.38-6.91.25-4.62.37-6.89.24-4.48.35-6.65.22-4.25.32-6.23a1.42,1.42,0,0,1,.27-.79,1.75,1.75,0,0,1,.64-.53,3.26,3.26,0,0,1,.88-.3,5.8,5.8,0,0,1,1-.09,5.47,5.47,0,0,1,2.4.61q-.43,3.9-.78,7.16c-.23,2.17-.43,4.18-.62,6s-.35,3.6-.5,5.22-.29,3.17-.41,4.65-.24,2.92-.35,4.34-.21,2.85-.31,4.31-.21,3-.31,4.53-.23,3.24-.36,5l.12,0a43.47,43.47,0,0,1,1.62-4.47,39,39,0,0,1,2.05-4.2,31.22,31.22,0,0,1,2.42-3.68,20,20,0,0,1,2.71-2.9,12.51,12.51,0,0,1,2.91-1.92,7.24,7.24,0,0,1,3.05-.69,5,5,0,0,1,1.79.31,4.19,4.19,0,0,1,1.42.9,4.13,4.13,0,0,1,.93,1.4,4.81,4.81,0,0,1,.33,1.83,7.33,7.33,0,0,1-.68,3.06A11.36,11.36,0,0,1,351,177a18.19,18.19,0,0,1-3,2.6,29.23,29.23,0,0,1-3.92,2.27q1.27,2.34,2.3,4c.68,1.11,1.29,2.05,1.84,2.8a15.07,15.07,0,0,0,1.5,1.8,6.77,6.77,0,0,0,1.23,1,3.32,3.32,0,0,0,1,.45,4.75,4.75,0,0,0,1,.1,7.6,7.6,0,0,0,2.06-.3,16.11,16.11,0,0,0,2.15-.8l.36,1a11.06,11.06,0,0,1-1.73,1.12,22.74,22.74,0,0,1-2.22,1,18,18,0,0,1-2.32.77,8.17,8.17,0,0,1-2,.3,3.48,3.48,0,0,1-2.05-.76,11.69,11.69,0,0,1-2.19-2.33,43.28,43.28,0,0,1-2.58-4c-.94-1.62-2-3.55-3.23-5.8Z"/><path class="cls-2" d="M361.71,187.47a5.71,5.71,0,0,0,.78,2.5,5.5,5.5,0,0,0,1.57,1.71,6.44,6.44,0,0,0,2.06,1,8.08,8.08,0,0,0,2.26.33,7.15,7.15,0,0,0,2-.29,5.53,5.53,0,0,0,1.71-.82,4,4,0,0,0,1.19-1.31,3.46,3.46,0,0,0,.45-1.75,3.27,3.27,0,0,0-.48-1.78,5.49,5.49,0,0,0-1.27-1.39,12.61,12.61,0,0,0-1.86-1.16l-2.2-1.08-2-1c-.68-.33-1.33-.68-2-1.06a15.22,15.22,0,0,1-1.78-1.24,8.82,8.82,0,0,1-1.45-1.48,6.63,6.63,0,0,1-1-1.8,6.8,6.8,0,0,1-.35-2.22,6.17,6.17,0,0,1,.46-2.42,6.94,6.94,0,0,1,1.24-2,8.84,8.84,0,0,1,1.83-1.55,11.55,11.55,0,0,1,2.22-1.12,14.19,14.19,0,0,1,4.86-.88,12.22,12.22,0,0,1,2.88.33,8.13,8.13,0,0,1,2.38,1,5.23,5.23,0,0,1,1.62,1.55,3.68,3.68,0,0,1,.6,2.06,3.4,3.4,0,0,1-.15.95,2.51,2.51,0,0,1-.52,1,2.93,2.93,0,0,1-.95.76,3.26,3.26,0,0,1-1.44.32,6,6,0,0,1-1.68-.25l-.06-.19a5.49,5.49,0,0,0,.38-1.12,4.19,4.19,0,0,0,.12-.95,2.52,2.52,0,0,0-.45-1.48,3.39,3.39,0,0,0-1.08-1,4.83,4.83,0,0,0-1.43-.55,7,7,0,0,0-1.56-.17,7.49,7.49,0,0,0-2.41.36,5.7,5.7,0,0,0-1.8,1,4.26,4.26,0,0,0-1.13,1.36,3.45,3.45,0,0,0-.39,1.58,3.37,3.37,0,0,0,.55,1.88,6.38,6.38,0,0,0,1.47,1.52,13.61,13.61,0,0,0,2.11,1.31c.79.4,1.62.81,2.48,1.21s1.92.93,2.88,1.42a14.22,14.22,0,0,1,2.55,1.67,8,8,0,0,1,1.82,2.14,5.67,5.67,0,0,1,.69,2.85,7,7,0,0,1-.86,3.48,7.92,7.92,0,0,1-2.32,2.57,10.53,10.53,0,0,1-3.32,1.59,13.67,13.67,0,0,1-3.9.55,15.09,15.09,0,0,1-2.08-.15,15.84,15.84,0,0,1-2.09-.46A12.85,12.85,0,0,1,361,194a8,8,0,0,1-1.58-1,4.67,4.67,0,0,1-1.07-1.3,3.21,3.21,0,0,1-.39-1.57,2.41,2.41,0,0,1,.32-1.26,2.5,2.5,0,0,1,.82-.83,4,4,0,0,1,1.16-.49,5.66,5.66,0,0,1,1.3-.18Z"/></g></g></svg>