<svg xmlns="http://www.w3.org/2000/svg" viewBox="0 0 522.9 483.37"><defs><style>.cls-1{fill:#9aba6b;}.cls-2{fill:none;stroke:#231f20;stroke-miterlimit:10;}.cls-3{fill:#f89820;}.cls-4{fill:#c6db76;}.cls-5{fill:#cad897;}.cls-6{fill:#d61f2a;}.cls-7{fill:#eb9822;}.cls-8{fill:#dece54;}.cls-9{fill:#df9826;}.cls-10,.cls-11{fill:#fff;}.cls-11{font-size:87.27px;letter-spacing:0.37em;}.cls-11,.cls-12{font-family:JustOne, Just One;}.cls-12{font-size:57.12px;fill:#231f20;}.cls-13{letter-spacing:0.03em;}</style></defs><title>Logo</title><g id="Layer_2" data-name="Layer 2"><g id="Layer_1-2" data-name="Layer 1"><circle class="cls-1" cx="493.22" cy="344.29" r="15"/><circle class="cls-2" cx="489.72" cy="343.79" r="15"/><path class="cls-3" d="M74.16,344.29H340.64a39,39,0,0,0,11.25-1.64c12.36-3.71,40.4-13.63,47.64-29.15,7.69-16.49,10.88-25.76,26.58-38.92a39.85,39.85,0,0,1,25.6-9.29h20a33.69,33.69,0,0,0,17.13-4.52c10.4-6.11,23.29-20.15,19.37-51.78a34,34,0,0,1-.25-5c.2-7.81-1.17-33.22-26.55-39.75a30.17,30.17,0,0,0-7.57-.91H444.45a35.26,35.26,0,0,1-24.75-10.13c-8.1-8-18-19.78-21.13-32.33A31.51,31.51,0,0,0,394,110.45c-6.32-9.09-20-25.74-36.49-27.68-21.65-2.55-263.14-.26-287.86,0a33.63,33.63,0,0,0-4.91.4c-6.69,1-23.79,4.59-37.61,14.94A57.65,57.65,0,0,0,21.37,103a34.46,34.46,0,0,0-10.15,24.53V273.27a42.78,42.78,0,0,1-.28,4.8C10.2,284.7,9,306,21.29,322.69,30.16,334.69,46,344.29,74.16,344.29Z"/><circle class="cls-2" cx="465.72" cy="222.79" r="23"/><path class="cls-2" d="M87.63,350.79H341.8a107.79,107.79,0,0,0,46.28-10.23c10.5-5,20.78-11.74,24.76-20.17,7.72-16.34,10.9-25.5,26.74-38.56a39.45,39.45,0,0,1,25.12-9h20.48a33.69,33.69,0,0,0,17.13-4.52c10.4-6.11,23.29-20.16,19.37-51.78a34,34,0,0,1-.25-5c.2-7.81-1.17-33.22-26.55-39.75a30.17,30.17,0,0,0-7.57-.91H458a35.26,35.26,0,0,1-24.75-10.13c-8.1-8-18-19.78-21.13-32.33A31.51,31.51,0,0,0,407.48,118c-6.32-9.09-20-25.74-36.49-27.68-21.65-2.55-263.23-.26-287.87,0a32.68,32.68,0,0,0-4.84.39c-7.71,1.2-29.54,5.75-44,20.45A34.1,34.1,0,0,0,24.72,135V280.75a36.22,36.22,0,0,1-.25,4.41C23.2,295.84,20,350.79,87.63,350.79Z"/><path class="cls-4" d="M80.31,69s296.55.89,313.91-12.46V20.44L147.1,44.71s-32.06-78.58-58.78,0c0,0,0-49.65-37.4-44.31,0,0-22.71,9.41-21.37,34.09,0,0-32.06-15.39-29.39,11.33S80.31,69,80.31,69Z"/><path class="cls-2" d="M80.81,76.81s296.55.89,313.91-12.47V28.27L147.6,52.54s-32.06-78.58-58.78,0c0,0,0-49.65-37.4-44.31,0,0-22.71,9.41-21.37,34.09,0,0-32.06-15.38-29.39,11.33S80.81,76.81,80.81,76.81Z"/><path class="cls-5" d="M264.09,381.17s10.3-8.31-35.89-7.34c-35.44.73-83.91.29-101.73.08a45.13,45.13,0,0,0-15.57,2.59c-7.36,2.59-16.69,6.79-16.28,11.26.66,7.35,5.77,9.9,22,12,17.38,2.27,112.87,0,112.87,0s14.7-2.23,23.38-5.13"/><path class="cls-2" d="M273,382.2s-20.48,12.47-20,19.59,0,23.15,0,23.15,14.7,29.39,25,27.17c0,0,137.14-21.38,210.61-63.68,0,0,11.58-9.35-45.86-9.79S273,382.2,273,382.2Z"/><path class="cls-2" d="M477.84,381s-202.12,69-213.75,61.86"/><path class="cls-2" d="M264.09,388.29s10.3-8.3-35.89-7.34c-35.44.74-83.91.29-101.73.09a45.36,45.36,0,0,0-15.57,2.58c-7.36,2.6-16.69,6.79-16.28,11.27.66,7.34,5.77,9.9,22,12,17.38,2.27,112.87,0,112.87,0s14.7-2.23,23.38-5.12"/><path class="cls-2" d="M72.29,394.57s15.14,5.34,5.34,25.82c0,0-24,16.92-32.06-12.91,0,0-14.69,23.15-28.5,2.39,0,0-18.25-25.85,6.24-30.44,0,0-14.25-22.27,1.78-27.61,0,0,21.37-9.8,26.71,9.8,0,0,22.63-11.58,29.13,0C80.93,361.62,95.15,372.26,72.29,394.57Z"/><circle class="cls-6" cx="47.72" cy="449.79" r="17.5"/><circle class="cls-2" cx="48.22" cy="454.29" r="17.5"/><circle class="cls-7" cx="478.22" cy="443.29" r="20"/><circle class="cls-2" cx="477.72" cy="443.79" r="20"/><circle class="cls-8" cx="426.72" cy="57.79" r="15.5"/><circle class="cls-2" cx="428.22" cy="57.29" r="15.5"/><path class="cls-9" d="M494.38,110.33s-8.28,30.15-29.83,17a8,8,0,0,1-3.68-8c1.44-9.42,6.38-28.89,22.82-29.4C483.69,90,497.72,92.63,494.38,110.33Z"/><path class="cls-2" d="M494.38,110.33s-8.28,30.15-29.83,17a8,8,0,0,1-3.68-8c1.44-9.42,6.38-28.89,22.82-29.4C483.69,90,497.72,92.63,494.38,110.33Z"/><path class="cls-10" d="M54.94,207.22c-1.68-1.19-2.72-31.54-2.72-57.2,0-16.21.4-30.56,1.28-34.37a3.7,3.7,0,0,1,3.75-3.26c2.31,0,3.51,1.52,3.67,3.81l17,50.78c.08,0,.08-.43.08-1.19,0-3.26-.4-13-.4-23.38,0-15.12.8-31.43,5-31.43,2.31,0,3.67,2,4.23,6.41.16,1.31,1.51,40.68,1.51,66,0,11.31-.24,19.79-1,20.88a3.94,3.94,0,0,1-3.2,1.41,4,4,0,0,1-3-1.2c-2.15-2.5-1.11-20.33-3.19-24.14-4.78-8.48-15.15-47.53-16.19-47.53-.24.55-1.36,71.57-3,73.63a3.35,3.35,0,0,1-2.56,1A1.9,1.9,0,0,1,54.94,207.22Z"/><path class="cls-10" d="M128.88,203.52c-1.43-2.17-1.83-11.09-1.83-21.09,0-13.49.8-28.82,1-32.74-8.94,46.77-12.85,54.71-19.55,54.92-8.22,0-10-13.27-11-24.79-.4-5-.64-11.75-.64-19,0-18.71,1.28-40.79,3-44.81a4.11,4.11,0,0,1,3.59-2.39c2.07,0,4.22,1.74,4.78,6.85,0,.65-2.47,33.06-2.47,56,0,12.61.72,22.4,3.11,22.4,3,0,8.62-16.42,18.75-64.28,0,0,4.7-23,5.66-23.7a3.46,3.46,0,0,1,2-.44c2.07,0,3.35.22,3.35,5.11,0,6.31-1.68,19.47-3,43.51-.87,15.76-1.27,22.83-1.27,28.38s.32,7.94.72,14.25c0,2.61-1.52,4-3.12,4A3.67,3.67,0,0,1,128.88,203.52Z"/><path class="cls-10" d="M153.54,204.07c0-80.26-.16-85.26-.32-85.26v.1l-.32-.1c-1.19,0-4.94.76-8.05.76s-4.55-1.09-4.55-2.18c0-.54.32-1,1-1.41,2.23-1.31,16.83-3.92,25.92-3.92,4.39,0,7.5.55,7.5,2.18a2.35,2.35,0,0,1-.56,1.3c-1.67,2.18-13.16,2.29-13.48,2.72,0,.65,2.08,23.82,2.08,53,0,9.89-.24,20.66-.88,31.32-.16,3.26-.24,3.59-1,4.56a3.36,3.36,0,0,1-2.63,1C156.1,208.09,153.54,206.79,153.54,204.07Z"/><path class="cls-10" d="M177.22,205.93c-1.44-2.5-2.39-30-2.39-54.16,0-13.05.31-25,.95-31.54.64-6.3,1.28-7.94,3.35-7.94h1.28c1.75,0,5.26-2.17,9.33-2.17,9.5,0,13.88,8.16,13.88,17.29,0,17.73-14.67,41-14.67,41.87,0,.65,19.78,31.11,19.78,34.15a2.73,2.73,0,0,1-2.71,3c-1.84,0-4.31-1.74-5.75-5.55-2.23-5.87-14.2-26-15.63-26-.08,0-.16.11-.16.22a19.77,19.77,0,0,0-.08,2.39c0,4.46.64,12.83.64,19.36,0,4-.24,7.28-1,8.7-1,1.84-2.31,3-3.59,3C179.37,208.65,178.26,207.78,177.22,205.93Zm18.67-80.16c0-8-3.35-11.64-6.47-11.64-3.11.43-6.46,2.39-6.86,3.48,0,0,1.28,42.41,1.36,42.41C193.09,143.93,195.89,133.7,195.89,125.77Z"/><path class="cls-10" d="M213,201.57c-.32-2.72-1.27-26.86-1.27-49.49,0-19.9.71-38.49,3.27-40.13a5.63,5.63,0,0,1,2.55-.43c2.79,0,4.31.33,4.31,5.55l-.08,3.37c-2.87,83.41-1.52,81.24-2.71,84.06a3.19,3.19,0,0,1-2.64,2.18C215,206.68,213.59,205.27,213,201.57Z"/><path class="cls-10" d="M275,206.82c-1.36-.76-1.76-11.86-1.76-25.56,0-20.66.88-47.42.88-55.57a13,13,0,0,0-.08-2.4H274c-1.44,0-13.16,41.55-14.36,42.31a4.78,4.78,0,0,1-2.47.65,4.54,4.54,0,0,1-3.35-1.3c-2.32-2.29-13.09-32.3-13.49-32.3-1.43,24.68-.15,68.3-1.67,71.34a4.15,4.15,0,0,1-3.75,2.28,4,4,0,0,1-3.75-2.5s-.88-28.49-.88-53.72c0-19.25.48-36.65,2.32-37.74a5.3,5.3,0,0,1,2.71-.65,9.74,9.74,0,0,1,3.51.65c2.55,1.63,18.35,42.74,19.3,45,15.64-39.91,14-41.87,16.84-45.24a3.42,3.42,0,0,1,2.71-1.19,4,4,0,0,1,2.23.65c1,.76,1.44,1.2,1.44,5.65,0,2.29-.08,5.55-.24,10.34-1.36,40.67-.72,76.89-1.36,78.3a3.18,3.18,0,0,1-2.87,1.52A3.71,3.71,0,0,1,275,206.82Z"/><path class="cls-10" d="M296.69,206.8c-5.75-1.63-6.47-9.79-6.47-18.27l.08-9.35c.08-58.62,1.68-63.3,1.68-63.63s-.56-.1-.56-1a3.53,3.53,0,0,1,3.35-3,2.87,2.87,0,0,1,1.52.44c1.27.76,5.1.76,8.93.76s7.42,0,8.38.76a1.89,1.89,0,0,1,.8,1.52,2.48,2.48,0,0,1-.72,1.63c-.56.55-1,.65-4.23.65l-11.33-.1c1.44,22.62.72,38.28,1.12,58.4.8.11-1,.21,4.71.43,3.9.11,5.82,1.31,5.82,2.5s-2.15,2.61-6.38,2.61a31,31,0,0,1-4.47-.22c-.08,5.88-.24,10.66-.24,14.14,0,5.22.4,7.83,2,7.83,3.58-.21,6.06-.65,8-.65,2.63,0,3.59.44,3.59,1s-1.67,1.52-3.67,2c-6.3,1.3-8.93,1.85-10.45,1.85A5.24,5.24,0,0,1,296.69,206.8Z"/><path class="cls-10" d="M319,207.22c-1.67-1.19-2.71-31.54-2.71-57.2,0-16.21.4-30.56,1.28-34.37a3.69,3.69,0,0,1,3.75-3.26c2.31,0,3.51,1.52,3.67,3.81L342,167c.08,0,.08-.43.08-1.19,0-3.26-.4-13-.4-23.38,0-15.12.8-31.43,4.94-31.43,2.32,0,3.67,2,4.23,6.41.16,1.31,1.52,40.68,1.52,66,0,11.31-.24,19.79-1,20.88a3.92,3.92,0,0,1-3.19,1.41,4,4,0,0,1-3-1.2c-2.16-2.5-1.12-20.33-3.19-24.14-4.79-8.48-15.16-47.53-16.2-47.53-.23.55-1.35,71.57-3,73.63a3.33,3.33,0,0,1-2.55,1A1.92,1.92,0,0,1,319,207.22Z"/><path class="cls-10" d="M366.54,204.07c0-80.26-.16-85.26-.32-85.26v.1l-.32-.1c-1.19,0-4.94.76-8,.76s-4.55-1.09-4.55-2.18c0-.54.32-1,1-1.41,2.23-1.31,16.83-3.92,25.92-3.92,4.39,0,7.5.55,7.5,2.18a2.35,2.35,0,0,1-.56,1.3c-1.67,2.18-13.16,2.29-13.48,2.72,0,.65,2.08,23.82,2.08,53,0,9.89-.24,20.66-.88,31.32-.16,3.26-.24,3.59-1,4.56a3.36,3.36,0,0,1-2.63,1C369.1,208.09,366.54,206.79,366.54,204.07Z"/><path class="cls-10" d="M44.22,222.29v4h346v-4Z"/><text class="cls-11" transform="translate(44.42 312.49)">HOUSE</text><text class="cls-12" transform="translate(81.95 463.78)"><tspan class="cls-13">K</tspan><tspan x="26.04" y="0">ITCHEN</tspan></text></g></g></svg>